<svg width="600" height="544" viewBox="0 0 600 544" fill="none" xmlns="http://www.w3.org/2000/svg">
<path d="M357.98 526.924C301.73 526.924 253.013 518.401 211.831 501.357C170.647 484.311 138.839 458.075 116.406 422.648C93.9735 386.887 82.7563 341.434 82.7563 286.288C82.7563 240.5 90.2899 200.561 105.357 166.47C120.758 132.046 141.852 103.304 168.638 80.2428C195.424 57.1817 226.395 39.9692 261.551 28.6061C296.708 16.9082 334.207 11.0597 374.051 11.0597C401.172 11.0597 426.786 13.9002 450.893 19.5823C475.334 25.2643 496.931 34.1207 515.681 46.1525C534.766 57.8505 549.665 72.8903 560.379 91.2718C571.094 109.653 576.451 131.546 576.451 156.945C576.451 184.017 570.758 206.076 559.375 223.12C547.991 239.832 532.422 253.033 512.667 262.725C492.913 272.083 470.48 279.102 445.368 283.781C420.591 288.125 394.643 291.468 367.522 293.807C353.794 296.146 337.556 298.152 318.806 299.824C300.056 301.16 281.808 302.33 264.063 303.332C246.652 304.002 233.092 304.335 223.381 304.335C213.337 304.335 206.473 305.672 202.79 308.346C199.107 311.02 197.266 315.865 197.266 322.884C197.266 331.24 199.609 341.099 204.297 352.463C208.985 363.492 215.681 374.354 224.386 385.049C240.458 404.768 259.04 417.968 280.134 424.653C301.562 431.003 327.846 434.179 358.984 434.179C386.105 434.179 410.882 431.003 433.315 424.653C455.747 417.968 475.836 411.452 493.583 405.102C511.663 398.417 527.902 395.076 542.299 395.076C555.357 395.076 565.569 397.582 572.935 402.595C580.636 407.274 584.486 416.632 584.486 430.669C584.486 443.37 578.628 455.569 566.909 467.266C555.525 478.964 539.62 489.157 519.196 497.847C498.773 506.871 474.832 513.89 447.377 518.902C419.922 524.249 390.123 526.924 357.98 526.924ZM318.303 248.186C345.424 248.186 370.703 245.68 394.141 240.667C417.578 235.32 436.496 226.463 450.893 214.097C465.625 201.396 472.991 184.017 472.991 161.959C472.991 135.89 463.448 116.338 444.363 103.304C425.279 89.9356 398.493 83.2509 364.006 83.2509C343.583 83.2509 323.661 86.9275 304.241 94.2799C284.821 101.298 267.578 111.157 252.511 123.858C237.444 136.558 225.391 150.93 216.351 166.972C207.31 183.014 202.79 200.227 202.79 218.609C202.79 227.966 206.473 234.819 213.839 239.163C221.541 243.174 233.761 245.68 250.502 246.683C267.578 247.685 290.178 248.186 318.303 248.186Z" fill="url(#paint0_linear_5_254)"/>
<mask id="mask0_5_254" style="mask-type:luminance" maskUnits="userSpaceOnUse" x="63" y="1" width="533" height="542">
<path d="M595.536 1.03337H63.1697V542.465H595.536V1.03337Z" fill="white"/>
<path d="M357.98 526.924C301.73 526.924 253.013 518.402 211.831 501.356C170.647 484.311 138.839 458.075 116.406 422.648C93.9735 386.887 82.7563 341.434 82.7563 286.288C82.7563 240.5 90.2899 200.561 105.357 166.471C120.758 132.047 141.852 103.304 168.638 80.2428C195.424 57.1819 226.395 39.9694 261.551 28.6063C296.708 16.9084 334.207 11.0599 374.051 11.0599C401.172 11.0599 426.786 13.9004 450.893 19.5825C475.334 25.2645 496.931 34.1209 515.681 46.1527C534.766 57.8507 549.665 72.8903 560.379 91.2718C571.094 109.654 576.451 131.546 576.451 156.945C576.451 184.017 570.758 206.076 559.375 223.121C547.991 239.832 532.422 253.033 512.667 262.726C492.913 272.083 470.48 279.102 445.368 283.781C420.591 288.125 394.643 291.468 367.522 293.807C353.794 296.147 337.556 298.152 318.806 299.824C300.056 301.16 281.808 302.33 264.063 303.333C246.652 304.002 233.092 304.336 223.381 304.336C213.337 304.336 206.473 305.672 202.79 308.346C199.107 311.02 197.266 315.866 197.266 322.884C197.266 331.24 199.609 341.099 204.297 352.463C208.985 363.492 215.681 374.354 224.386 385.049C240.458 404.768 259.04 417.969 280.134 424.654C301.562 431.004 327.846 434.179 358.984 434.179C386.105 434.179 410.882 431.004 433.315 424.654C455.747 417.969 475.836 411.452 493.583 405.102C511.663 398.417 527.902 395.076 542.299 395.076C555.357 395.076 565.569 397.582 572.935 402.595C580.636 407.274 584.486 416.632 584.486 430.669C584.486 443.37 578.628 455.568 566.909 467.266C555.525 478.964 539.62 489.157 519.196 497.847C498.773 506.871 474.832 513.89 447.377 518.903C419.922 524.25 390.123 526.924 357.98 526.924ZM318.303 248.187C345.424 248.187 370.703 245.68 394.141 240.667C417.578 235.32 436.496 226.463 450.893 214.097C465.625 201.396 472.991 184.017 472.991 161.959C472.991 135.89 463.448 116.338 444.363 103.304C425.279 89.9356 398.493 83.2509 364.006 83.2509C343.583 83.2509 323.661 86.9275 304.241 94.2799C284.821 101.299 267.578 111.157 252.511 123.858C237.444 136.558 225.391 150.93 216.351 166.972C207.31 183.015 202.79 200.227 202.79 218.609C202.79 227.967 206.473 234.819 213.839 239.163C221.541 243.174 233.761 245.68 250.502 246.683C267.578 247.686 290.178 248.187 318.303 248.187Z" fill="black"/>
</mask>
<g mask="url(#mask0_5_254)">
<path d="M116.406 422.648L107.892 427.969L107.916 428.006L116.406 422.648ZM105.357 166.471L96.1857 162.382L96.1672 162.424L105.357 166.471ZM261.551 28.6063L264.646 38.1455L264.727 38.1184L261.551 28.6063ZM450.893 19.5824L448.584 29.3402L448.615 29.3473L450.893 19.5824ZM515.681 46.1527L510.249 54.587L510.336 54.6431L510.424 54.6973L515.681 46.1527ZM559.375 223.121L567.682 228.759L567.733 228.682L559.375 223.121ZM512.667 262.726L516.974 271.784L517.098 271.723L512.667 262.726ZM445.369 283.781L447.106 293.657L447.211 293.637L445.369 283.781ZM367.522 293.807L366.658 283.818L366.243 283.855L365.832 283.925L367.522 293.807ZM318.806 299.824L319.521 309.825L319.611 309.818L319.699 309.81L318.806 299.824ZM264.063 303.333L264.449 313.352L264.539 313.348L264.63 313.343L264.063 303.333ZM204.297 352.463L195.009 356.281L195.05 356.378L204.297 352.463ZM280.134 424.654L277.094 434.21L277.185 434.239L277.275 434.265L280.134 424.654ZM433.315 424.654L436.056 434.301L436.188 434.261L433.315 424.654ZM493.583 405.102L496.973 414.541L497.071 414.504L493.583 405.102ZM572.935 402.595L567.277 410.88L567.491 411.025L567.713 411.16L572.935 402.595ZM566.909 467.266L559.806 460.176L559.755 460.228L559.704 460.28L566.909 467.266ZM519.196 497.847L515.258 488.623L515.131 488.679L519.196 497.847ZM447.377 518.903L445.569 509.04L445.454 509.062L447.377 518.903ZM394.141 240.667L396.245 250.472L396.379 250.442L394.141 240.667ZM450.893 214.097L457.444 221.697L457.458 221.685L450.893 214.097ZM444.364 103.304L438.593 111.512L438.691 111.579L444.364 103.304ZM304.241 94.2799L307.66 103.708L307.733 103.682L307.804 103.655L304.241 94.2799ZM213.839 239.163L208.729 247.795L208.958 247.93L209.193 248.053L213.839 239.163ZM250.502 246.683L249.901 256.692L249.913 256.692L250.502 246.683ZM357.98 516.898C302.717 516.898 255.367 508.521 215.677 492.095L207.984 510.618C250.66 528.282 300.743 536.95 357.98 536.95V516.898ZM215.677 492.095C176.284 475.79 146.152 450.859 124.897 417.291L107.916 428.006C131.526 465.292 165.011 492.833 207.984 510.618L215.677 492.095ZM124.92 417.327C103.751 383.581 92.8014 340.118 92.8014 286.288H72.7122C72.7122 342.749 84.1957 390.193 107.892 427.969L124.92 417.327ZM92.8014 286.288C92.8014 241.582 100.157 203.077 114.547 170.518L96.1672 162.424C80.4236 198.046 72.7122 239.417 72.7122 286.288H92.8014ZM114.529 170.56C129.37 137.388 149.606 109.87 175.199 87.8352L162.079 72.6511C134.1 96.7374 112.147 126.706 96.1857 162.382L114.529 170.56ZM175.199 87.8352C200.926 65.6863 230.705 49.1156 264.646 38.1455L258.456 19.0671C222.085 30.8241 189.923 48.6773 162.079 72.6511L175.199 87.8352ZM264.727 38.1184C298.786 26.7865 335.206 21.0864 374.051 21.0864V1.03337C333.209 1.03337 294.629 7.03123 258.375 19.0941L264.727 38.1184ZM374.051 21.0864C400.468 21.0864 425.301 23.8527 448.584 29.3402L453.201 9.82462C428.27 3.94808 401.876 1.03337 374.051 1.03337V21.0864ZM448.615 29.3473C472.076 34.8017 492.58 43.248 510.249 54.587L521.113 37.7184C501.282 24.9937 478.593 15.7262 453.171 9.81762L448.615 29.3473ZM510.424 54.6973C528.17 65.5741 541.861 79.4379 551.698 96.3146L569.061 86.2297C557.469 66.3421 541.361 50.1272 520.937 37.6081L510.424 54.6973ZM551.698 96.3146C561.36 112.892 566.406 132.971 566.406 156.945H586.496C586.496 130.119 580.827 106.416 569.061 86.2297L551.698 96.3146ZM566.406 156.945C566.406 182.664 560.999 202.614 551.018 217.559L567.733 228.682C580.519 209.537 586.496 185.371 586.496 156.945H566.406ZM551.069 217.483C540.747 232.634 526.57 244.732 508.236 253.726L517.098 271.723C538.274 261.334 555.236 247.03 567.682 228.759L551.069 217.483ZM508.361 253.668C489.508 262.598 467.924 269.379 443.525 273.925L447.211 293.637C473.036 288.825 496.319 281.57 516.974 271.784L508.361 253.668ZM443.631 273.906C419.165 278.196 393.509 281.502 366.658 283.818L368.387 303.797C395.777 301.434 422.018 298.057 447.106 293.657L443.631 273.906ZM365.832 283.925C352.441 286.206 336.481 288.182 317.913 289.837L319.699 309.81C338.63 308.124 355.147 306.088 369.213 303.691L365.832 283.925ZM318.091 289.822C299.386 291.156 281.189 292.323 263.495 293.322L264.63 313.343C282.428 312.337 300.726 311.165 319.521 309.825L318.091 289.822ZM263.677 293.313C246.311 293.98 232.9 294.309 223.381 294.309V314.362C233.283 314.362 246.993 314.022 264.449 313.352L263.677 293.313ZM223.381 294.309C217.968 294.309 213.051 294.665 208.777 295.497C204.602 296.311 200.374 297.703 196.882 300.238L208.699 316.455C208.89 316.315 209.935 315.703 212.624 315.179C215.214 314.675 218.751 314.362 223.381 314.362V294.309ZM196.882 300.238C189.425 305.651 187.221 314.455 187.221 322.884H207.31C207.31 320.188 207.673 318.505 208.039 317.542C208.366 316.679 208.65 316.49 208.699 316.455L196.882 300.238ZM187.221 322.884C187.221 333.014 190.036 344.227 195.009 356.281L213.585 348.645C209.183 337.972 207.31 329.466 207.31 322.884H187.221ZM195.05 356.378C200.156 368.393 207.378 380.054 216.591 391.372L232.182 378.726C223.984 368.655 217.813 358.591 213.544 348.546L195.05 356.378ZM216.591 391.372C233.706 412.371 253.866 426.849 277.094 434.21L283.174 415.097C264.214 409.09 247.209 397.164 232.182 378.726L216.591 391.372ZM277.275 434.265C299.916 440.975 327.227 444.205 358.984 444.205V424.153C328.465 424.153 303.209 421.033 282.993 415.042L277.275 434.265ZM358.984 444.205C386.884 444.205 412.601 440.941 436.056 434.301L430.574 415.007C409.164 421.068 385.326 424.153 358.984 424.153V444.205ZM436.188 434.261C458.755 427.537 479.021 420.965 496.973 414.541L490.193 395.664C472.653 401.94 452.74 408.401 430.442 415.046L436.188 434.261ZM497.071 414.504C514.39 408.101 529.421 405.102 542.299 405.102V385.049C526.384 385.049 508.936 388.734 490.094 395.7L497.071 414.504ZM542.299 405.102C554.229 405.102 562.188 407.416 567.277 410.88L578.594 394.311C568.951 387.748 556.485 385.049 542.299 385.049V405.102ZM567.713 411.16C570.993 413.153 574.442 418.057 574.442 430.669H594.531C594.531 415.207 590.279 401.396 578.159 394.031L567.713 411.16ZM574.442 430.669C574.442 439.976 570.234 449.767 559.806 460.176L574.011 474.356C587.02 461.37 594.531 446.764 594.531 430.669H574.442ZM559.704 460.28C549.519 470.746 534.869 480.279 515.258 488.623L523.135 507.071C544.372 498.036 561.531 487.182 574.114 474.253L559.704 460.28ZM515.131 488.679C495.583 497.316 472.431 504.135 445.569 509.04L449.184 528.766C477.234 523.645 501.962 516.426 523.261 507.016L515.131 488.679ZM445.454 509.062C418.718 514.27 389.57 516.898 357.98 516.898V536.95C390.675 536.95 421.126 534.231 449.301 528.744L445.454 509.062ZM318.304 258.214C346.041 258.214 372.032 255.651 396.245 250.472L392.036 230.863C369.374 235.711 344.807 238.16 318.304 238.16V258.214ZM396.379 250.442C420.996 244.825 441.522 235.373 457.444 221.697L444.341 206.496C431.469 217.553 414.161 225.815 391.903 230.892L396.379 250.442ZM457.458 221.685C474.713 206.811 483.036 186.492 483.036 161.959H462.946C462.946 181.543 456.538 195.983 444.328 206.509L457.458 221.685ZM483.036 161.959C483.036 133.08 472.245 110.197 450.036 95.0291L438.691 111.579C454.653 122.479 462.946 138.7 462.946 161.959H483.036ZM450.134 95.0962C428.725 80.1006 399.62 73.2245 364.006 73.2245V93.2772C397.367 93.2772 421.831 99.7698 438.593 111.512L450.134 95.0962ZM364.006 73.2245C342.344 73.2245 321.216 77.1289 300.679 84.9049L307.804 103.655C326.104 96.7252 344.821 93.2772 364.006 93.2772V73.2245ZM300.822 84.852C280.338 92.2559 262.048 102.696 246.031 116.198L258.992 131.519C273.109 119.619 289.305 110.342 307.66 103.708L300.822 84.852ZM246.031 116.198C230.111 129.617 217.264 144.901 207.596 162.056L225.106 171.888C233.518 156.959 244.777 143.501 258.992 131.519L246.031 116.198ZM207.596 162.056C197.711 179.598 192.746 198.503 192.746 218.609H212.835C212.835 201.951 216.91 186.432 225.106 171.888L207.596 162.056ZM192.746 218.609C192.746 231.103 197.966 241.448 208.729 247.795L218.949 230.531C214.979 228.189 212.835 224.831 212.835 218.609H192.746ZM209.193 248.053C218.839 253.077 232.819 255.669 249.901 256.692L251.104 236.675C234.703 235.692 224.241 233.27 218.486 230.273L209.193 248.053ZM249.913 256.692C267.269 257.711 290.089 258.214 318.304 258.214V238.16C290.268 238.16 267.888 237.66 251.092 236.673L249.913 256.692Z" fill="black"/>
</g>
<path d="M347.935 526.924C291.685 526.924 242.969 518.401 201.786 501.357C160.603 484.311 128.794 458.075 106.361 422.648C83.9286 386.887 72.7122 341.434 72.7122 286.288C72.7122 240.5 80.2457 200.561 95.3129 166.47C110.714 132.046 131.808 103.304 158.594 80.2428C185.38 57.1817 216.351 39.9692 251.506 28.6061C286.663 16.9082 324.163 11.0597 364.006 11.0597C391.127 11.0597 416.741 13.9002 440.849 19.5823C465.29 25.2643 486.886 34.1207 505.636 46.1525C524.721 57.8505 539.62 72.8903 550.335 91.2718C561.049 109.653 566.406 131.546 566.406 156.945C566.406 184.017 560.714 206.076 549.331 223.12C537.947 239.832 522.378 253.033 502.623 262.725C482.868 272.083 460.435 279.102 435.324 283.781C410.546 288.125 384.599 291.468 357.478 293.807C343.75 296.146 327.511 298.152 308.761 299.824C290.011 301.16 271.764 302.33 254.018 303.332C236.607 304.002 223.047 304.335 213.337 304.335C203.292 304.335 196.429 305.672 192.746 308.346C189.062 311.02 187.221 315.865 187.221 322.884C187.221 331.24 189.564 341.099 194.252 352.463C198.94 363.492 205.636 374.354 214.341 385.049C230.413 404.768 248.996 417.968 270.089 424.653C291.518 431.003 317.801 434.179 348.94 434.179C376.06 434.179 400.837 431.003 423.27 424.653C445.703 417.968 465.792 411.452 483.538 405.102C501.619 398.417 517.858 395.076 532.254 395.076C545.313 395.076 555.525 397.582 562.891 402.595C570.592 407.274 574.442 416.632 574.442 430.669C574.442 443.37 568.583 455.569 556.864 467.266C545.48 478.964 529.576 489.157 509.152 497.847C488.728 506.871 464.788 513.89 437.333 518.902C409.878 524.249 380.078 526.924 347.935 526.924ZM308.259 248.186C335.379 248.186 360.659 245.68 384.096 240.667C407.533 235.32 426.451 226.463 440.849 214.097C455.581 201.396 462.946 184.017 462.946 161.959C462.946 135.89 453.404 116.338 434.319 103.304C415.234 89.9356 388.449 83.2509 353.962 83.2509C333.539 83.2509 313.616 86.9275 294.196 94.2799C274.777 101.298 257.534 111.157 242.466 123.858C227.399 136.558 215.346 150.93 206.306 166.972C197.266 183.014 192.746 200.227 192.746 218.609C192.746 227.966 196.429 234.819 203.795 239.163C211.496 243.174 223.716 245.68 240.458 246.683C257.534 247.685 280.134 248.186 308.259 248.186Z" fill="#FF2E2E"/>
<mask id="mask1_5_254" style="mask-type:luminance" maskUnits="userSpaceOnUse" x="53" y="1" width="533" height="542">
<path d="M585.491 1.03337H53.125V542.465H585.491V1.03337Z" fill="white"/>
<path d="M347.935 526.924C291.685 526.924 242.969 518.402 201.786 501.356C160.603 484.311 128.794 458.075 106.361 422.648C83.9286 386.887 72.7122 341.434 72.7122 286.288C72.7122 240.5 80.2457 200.561 95.3129 166.471C110.714 132.047 131.808 103.304 158.594 80.2428C185.38 57.1819 216.351 39.9694 251.506 28.6063C286.663 16.9084 324.163 11.0599 364.006 11.0599C391.127 11.0599 416.741 13.9004 440.849 19.5825C465.29 25.2645 486.886 34.1209 505.636 46.1527C524.721 57.8507 539.62 72.8903 550.335 91.2718C561.049 109.654 566.406 131.546 566.406 156.945C566.406 184.017 560.714 206.076 549.331 223.121C537.947 239.832 522.378 253.033 502.623 262.726C482.868 272.083 460.435 279.102 435.324 283.781C410.546 288.125 384.599 291.468 357.478 293.807C343.75 296.147 327.511 298.152 308.761 299.824C290.011 301.16 271.764 302.33 254.018 303.333C236.607 304.002 223.047 304.336 213.337 304.336C203.292 304.336 196.429 305.672 192.746 308.346C189.062 311.02 187.221 315.866 187.221 322.884C187.221 331.24 189.564 341.099 194.252 352.463C198.94 363.492 205.636 374.354 214.341 385.049C230.413 404.768 248.996 417.969 270.089 424.654C291.518 431.004 317.801 434.179 348.94 434.179C376.06 434.179 400.837 431.004 423.27 424.654C445.703 417.969 465.792 411.452 483.538 405.102C501.619 398.417 517.858 395.076 532.254 395.076C545.313 395.076 555.525 397.582 562.891 402.595C570.592 407.274 574.442 416.632 574.442 430.669C574.442 443.37 568.583 455.568 556.864 467.266C545.48 478.964 529.576 489.157 509.152 497.847C488.728 506.871 464.788 513.89 437.333 518.903C409.878 524.25 380.078 526.924 347.935 526.924ZM308.259 248.187C335.379 248.187 360.659 245.68 384.096 240.667C407.533 235.32 426.451 226.463 440.849 214.097C455.581 201.396 462.946 184.017 462.946 161.959C462.946 135.89 453.404 116.338 434.319 103.304C415.234 89.9356 388.449 83.2509 353.962 83.2509C333.539 83.2509 313.616 86.9275 294.196 94.2799C274.777 101.299 257.534 111.157 242.466 123.858C227.399 136.558 215.346 150.93 206.306 166.972C197.266 183.015 192.746 200.227 192.746 218.609C192.746 227.967 196.429 234.819 203.795 239.163C211.496 243.174 223.716 245.68 240.458 246.683C257.534 247.686 280.134 248.187 308.259 248.187Z" fill="black"/>
</mask>
<g mask="url(#mask1_5_254)">
<path d="M106.361 422.648L97.8479 427.969L97.8708 428.006L106.361 422.648ZM95.3129 166.471L86.1408 162.382L86.1222 162.424L95.3129 166.471ZM251.506 28.6063L254.601 38.1455L254.683 38.1184L251.506 28.6063ZM440.849 19.5824L438.54 29.3402L438.57 29.3473L440.849 19.5824ZM505.636 46.1527L500.204 54.587L500.291 54.6431L500.38 54.6973L505.636 46.1527ZM549.331 223.121L557.637 228.759L557.689 228.682L549.331 223.121ZM502.623 262.726L506.93 271.784L507.054 271.723L502.623 262.726ZM435.324 283.781L437.061 293.657L437.167 293.637L435.324 283.781ZM357.478 293.807L356.613 283.818L356.198 283.855L355.787 283.925L357.478 293.807ZM308.761 299.824L309.476 309.825L309.566 309.818L309.654 309.81L308.761 299.824ZM254.018 303.333L254.404 313.352L254.495 313.348L254.586 313.343L254.018 303.333ZM194.252 352.463L184.964 356.281L185.005 356.378L194.252 352.463ZM270.089 424.654L267.05 434.21L267.14 434.239L267.231 434.265L270.089 424.654ZM423.27 424.654L426.011 434.301L426.143 434.261L423.27 424.654ZM483.538 405.102L486.928 414.541L487.026 414.504L483.538 405.102ZM562.891 402.595L557.233 410.88L557.447 411.025L557.669 411.16L562.891 402.595ZM556.864 467.266L549.761 460.176L549.71 460.228L549.659 460.28L556.864 467.266ZM509.152 497.847L505.214 488.623L505.086 488.679L509.152 497.847ZM437.333 518.903L435.524 509.04L435.409 509.062L437.333 518.903ZM384.096 240.667L386.2 250.472L386.334 250.442L384.096 240.667ZM440.849 214.097L447.399 221.697L447.414 221.685L440.849 214.097ZM434.319 103.304L428.549 111.512L428.647 111.579L434.319 103.304ZM294.196 94.2799L297.616 103.708L297.688 103.682L297.759 103.655L294.196 94.2799ZM203.795 239.163L198.685 247.795L198.913 247.93L199.148 248.053L203.795 239.163ZM240.458 246.683L239.856 256.692L239.868 256.692L240.458 246.683ZM347.935 516.898C292.673 516.898 245.322 508.521 205.633 492.095L197.939 510.618C240.615 528.282 290.698 536.95 347.935 536.95V516.898ZM205.633 492.095C166.239 475.79 136.108 450.859 114.852 417.291L97.8708 428.006C121.482 465.292 154.966 492.833 197.939 510.618L205.633 492.095ZM114.876 417.327C93.7065 383.581 82.7565 340.118 82.7565 286.288H62.6675C62.6675 342.749 74.1508 390.193 97.8479 427.969L114.876 417.327ZM82.7565 286.288C82.7565 241.582 90.1122 203.077 104.502 170.518L86.1222 162.424C70.3786 198.046 62.6675 239.417 62.6675 286.288H82.7565ZM104.484 170.56C119.325 137.388 139.561 109.87 165.154 87.8352L152.034 72.6511C124.055 96.7374 102.103 126.706 86.1408 162.382L104.484 170.56ZM165.154 87.8352C190.881 65.6863 220.661 49.1156 254.601 38.1455L248.412 19.0671C212.04 30.8241 179.879 48.6773 152.034 72.6511L165.154 87.8352ZM254.683 38.1184C288.741 26.7865 325.161 21.0864 364.006 21.0864V1.03337C323.164 1.03337 284.585 7.03123 248.331 19.0941L254.683 38.1184ZM364.006 21.0864C390.423 21.0864 415.256 23.8527 438.54 29.3402L443.156 9.82462C418.226 3.94808 391.831 1.03337 364.006 1.03337V21.0864ZM438.57 29.3473C462.031 34.8017 482.536 43.248 500.204 54.587L511.069 37.7184C491.237 24.9937 468.549 15.7262 443.126 9.81762L438.57 29.3473ZM500.38 54.6973C518.126 65.5741 531.816 79.4379 541.654 96.3146L559.016 86.2297C547.425 66.3421 531.316 50.1272 510.893 37.6081L500.38 54.6973ZM541.654 96.3146C551.315 112.892 556.362 132.971 556.362 156.945H576.451C576.451 130.119 570.783 106.416 559.016 86.2297L541.654 96.3146ZM556.362 156.945C556.362 182.664 550.954 202.614 540.974 217.559L557.689 228.682C570.474 209.537 576.451 185.371 576.451 156.945H556.362ZM541.024 217.483C530.703 232.634 516.526 244.732 498.192 253.726L507.054 271.723C528.229 261.334 545.191 247.03 557.637 228.759L541.024 217.483ZM498.316 253.668C479.463 262.598 457.879 269.379 433.481 273.925L437.167 293.637C462.991 288.825 486.274 281.57 506.93 271.784L498.316 253.668ZM433.586 273.906C409.12 278.196 383.464 281.502 356.613 283.818L358.343 303.797C385.732 301.434 411.973 298.057 437.061 293.657L433.586 273.906ZM355.787 283.925C342.396 286.206 326.436 288.182 307.868 289.837L309.654 309.81C328.585 308.124 345.103 306.088 359.168 303.691L355.787 283.925ZM308.046 289.822C289.342 291.156 271.144 292.323 253.45 293.322L254.586 313.343C272.384 312.337 290.681 311.165 309.476 309.825L308.046 289.822ZM253.632 293.313C236.266 293.98 222.856 294.309 213.337 294.309V314.362C223.238 314.362 236.948 314.022 254.404 313.352L253.632 293.313ZM213.337 294.309C207.923 294.309 203.006 294.665 198.732 295.497C194.558 296.311 190.329 297.703 186.837 300.238L198.654 316.455C198.846 316.315 199.89 315.703 202.579 315.179C205.17 314.675 208.706 314.362 213.337 314.362V294.309ZM186.837 300.238C179.38 305.651 177.176 314.455 177.176 322.884H197.266C197.266 320.188 197.629 318.505 197.994 317.542C198.321 316.679 198.606 316.49 198.654 316.455L186.837 300.238ZM177.176 322.884C177.176 333.014 179.992 344.227 184.964 356.281L203.541 348.645C199.138 337.972 197.266 329.466 197.266 322.884H177.176ZM185.005 356.378C190.112 368.393 197.333 380.054 206.546 391.372L222.137 378.726C213.939 368.655 207.769 358.591 203.499 348.546L185.005 356.378ZM206.546 391.372C223.661 412.371 243.821 426.849 267.05 434.21L273.129 415.097C254.169 409.09 237.165 397.164 222.137 378.726L206.546 391.372ZM267.231 434.265C289.871 440.975 317.183 444.205 348.94 444.205V424.153C318.42 424.153 293.165 421.033 272.948 415.042L267.231 434.265ZM348.94 444.205C376.84 444.205 402.556 440.941 426.011 434.301L420.53 415.007C399.12 421.068 375.281 424.153 348.94 424.153V444.205ZM426.143 434.261C448.71 427.537 468.976 420.965 486.928 414.541L480.148 395.664C462.608 401.94 442.696 408.401 420.397 415.046L426.143 434.261ZM487.026 414.504C504.346 408.101 519.376 405.102 532.254 405.102V385.049C516.339 385.049 498.891 388.734 480.049 395.7L487.026 414.504ZM532.254 405.102C544.184 405.102 552.143 407.416 557.233 410.88L568.549 394.311C558.906 387.748 546.441 385.049 532.254 385.049V405.102ZM557.669 411.16C560.948 413.153 564.397 418.057 564.397 430.669H584.487C584.487 415.207 580.235 401.396 568.114 394.031L557.669 411.16ZM564.397 430.669C564.397 439.976 560.19 449.767 549.761 460.176L563.966 474.356C576.975 461.37 584.487 446.764 584.487 430.669H564.397ZM549.659 460.28C539.474 470.746 524.824 480.279 505.214 488.623L513.09 507.071C534.328 498.036 551.487 487.182 564.069 474.253L549.659 460.28ZM505.086 488.679C485.538 497.316 462.386 504.135 435.524 509.04L439.14 528.766C467.189 523.645 491.917 516.426 513.217 507.016L505.086 488.679ZM435.409 509.062C408.674 514.27 379.526 516.898 347.935 516.898V536.95C380.631 536.95 411.082 534.231 439.256 528.744L435.409 509.062ZM308.259 258.214C335.996 258.214 361.988 255.651 386.2 250.472L381.991 230.863C359.329 235.711 334.763 238.16 308.259 238.16V258.214ZM386.334 250.442C410.951 244.825 431.478 235.373 447.399 221.697L434.297 206.496C421.425 217.553 404.116 225.815 381.858 230.892L386.334 250.442ZM447.414 221.685C464.668 206.811 472.991 186.492 472.991 161.959H452.902C452.902 181.543 446.494 195.983 434.283 206.509L447.414 221.685ZM472.991 161.959C472.991 133.08 462.2 110.197 439.991 95.0291L428.647 111.579C444.608 122.479 452.902 138.7 452.902 161.959H472.991ZM440.089 95.0962C418.681 80.1006 389.576 73.2245 353.962 73.2245V93.2772C387.322 93.2772 411.787 99.7698 428.549 111.512L440.089 95.0962ZM353.962 73.2245C332.3 73.2245 311.172 77.1289 290.634 84.9049L297.759 103.655C316.059 96.7252 334.776 93.2772 353.962 93.2772V73.2245ZM290.777 84.852C270.293 92.2559 252.003 102.696 235.986 116.198L248.947 131.519C263.064 119.619 279.26 110.342 297.616 103.708L290.777 84.852ZM235.986 116.198C220.067 129.617 207.219 144.901 197.551 162.056L215.061 171.888C223.473 156.959 234.732 143.501 248.947 131.519L235.986 116.198ZM197.551 162.056C187.666 179.598 182.701 198.503 182.701 218.609H202.79C202.79 201.951 206.865 186.432 215.061 171.888L197.551 162.056ZM182.701 218.609C182.701 231.103 187.922 241.448 198.685 247.795L208.904 230.531C204.935 228.189 202.79 224.831 202.79 218.609H182.701ZM199.148 248.053C208.795 253.077 222.775 255.669 239.856 256.692L241.059 236.675C224.659 235.692 214.196 233.27 208.441 230.273L199.148 248.053ZM239.868 256.692C257.224 257.711 280.044 258.214 308.259 258.214V238.16C280.224 238.16 257.843 237.66 241.047 236.673L239.868 256.692Z" fill="black"/>
</g>
<path d="M337.891 526.924C281.641 526.924 232.924 518.401 191.741 501.357C150.558 484.311 118.75 458.075 96.3172 422.648C73.8843 386.887 62.6675 341.434 62.6675 286.288C62.6675 240.5 70.201 200.561 85.2679 166.47C100.669 132.046 121.763 103.304 148.549 80.2428C175.335 57.1817 206.306 39.9692 241.462 28.6061C276.619 16.9082 314.118 11.0597 353.962 11.0597C381.083 11.0597 406.697 13.9002 430.804 19.5823C455.245 25.2643 476.841 34.1207 495.591 46.1525C514.677 57.8505 529.576 72.8903 540.29 91.2718C551.005 109.653 556.362 131.546 556.362 156.945C556.362 184.017 550.669 206.076 539.286 223.12C527.902 239.832 512.333 253.033 492.578 262.725C472.824 272.083 450.391 279.102 425.279 283.781C400.502 288.125 374.554 291.468 347.433 293.807C333.705 296.146 317.467 298.152 298.717 299.824C279.967 301.16 261.719 302.33 243.974 303.332C226.563 304.002 213.003 304.335 203.292 304.335C193.248 304.335 186.384 305.672 182.701 308.346C179.018 311.02 177.177 315.865 177.177 322.884C177.177 331.24 179.52 341.099 184.208 352.463C188.896 363.492 195.591 374.354 204.297 385.049C220.369 404.768 238.951 417.968 260.045 424.653C281.473 431.003 307.757 434.179 338.895 434.179C366.016 434.179 390.793 431.003 413.226 424.653C435.658 417.968 455.747 411.452 473.494 405.102C491.574 398.417 507.813 395.076 522.21 395.076C535.268 395.076 545.48 397.582 552.846 402.595C560.547 407.274 564.397 416.632 564.397 430.669C564.397 443.37 558.539 455.569 546.819 467.266C535.436 478.964 519.531 489.157 499.107 497.847C478.684 506.871 454.743 513.89 427.288 518.902C399.833 524.249 370.034 526.924 337.891 526.924ZM298.214 248.186C325.335 248.186 350.614 245.68 374.052 240.667C397.489 235.32 416.407 226.463 430.804 214.097C445.536 201.396 452.902 184.017 452.902 161.959C452.902 135.89 443.359 116.338 424.274 103.304C405.19 89.9356 378.404 83.2509 343.917 83.2509C323.494 83.2509 303.572 86.9275 284.152 94.2799C264.732 101.298 247.489 111.157 232.422 123.858C217.355 136.558 205.301 150.93 196.261 166.972C187.221 183.014 182.701 200.227 182.701 218.609C182.701 227.966 186.384 234.819 193.75 239.163C201.451 243.174 213.671 245.68 230.413 246.683C247.489 247.685 270.089 248.186 298.214 248.186Z" fill="#201DDD"/>
<mask id="mask2_5_254" style="mask-type:luminance" maskUnits="userSpaceOnUse" x="43" y="1" width="533" height="542">
<path d="M575.446 1.03337H43.0803V542.465H575.446V1.03337Z" fill="white"/>
<path d="M337.891 526.924C281.641 526.924 232.924 518.402 191.741 501.356C150.558 484.311 118.75 458.075 96.3172 422.648C73.8843 386.887 62.6675 341.434 62.6675 286.288C62.6675 240.5 70.201 200.561 85.2679 166.471C100.669 132.047 121.763 103.304 148.549 80.2428C175.335 57.1819 206.306 39.9694 241.462 28.6063C276.619 16.9084 314.118 11.0599 353.962 11.0599C381.083 11.0599 406.697 13.9004 430.804 19.5825C455.245 25.2645 476.841 34.1209 495.591 46.1527C514.677 57.8507 529.576 72.8903 540.29 91.2718C551.005 109.654 556.362 131.546 556.362 156.945C556.362 184.017 550.669 206.076 539.286 223.121C527.902 239.832 512.333 253.033 492.578 262.726C472.824 272.083 450.391 279.102 425.279 283.781C400.502 288.125 374.554 291.468 347.433 293.807C333.705 296.147 317.467 298.152 298.717 299.824C279.967 301.16 261.719 302.33 243.974 303.333C226.563 304.002 213.003 304.336 203.292 304.336C193.248 304.336 186.384 305.672 182.701 308.346C179.018 311.02 177.177 315.866 177.177 322.884C177.177 331.24 179.52 341.099 184.208 352.463C188.896 363.492 195.591 374.354 204.297 385.049C220.369 404.768 238.951 417.969 260.045 424.654C281.473 431.004 307.757 434.179 338.895 434.179C366.016 434.179 390.793 431.004 413.226 424.654C435.658 417.969 455.747 411.452 473.494 405.102C491.574 398.417 507.813 395.076 522.21 395.076C535.268 395.076 545.48 397.582 552.846 402.595C560.547 407.274 564.397 416.632 564.397 430.669C564.397 443.37 558.539 455.568 546.819 467.266C535.436 478.964 519.531 489.157 499.107 497.847C478.684 506.871 454.743 513.89 427.288 518.903C399.833 524.25 370.034 526.924 337.891 526.924ZM298.214 248.187C325.335 248.187 350.614 245.68 374.052 240.667C397.489 235.32 416.407 226.463 430.804 214.097C445.536 201.396 452.902 184.017 452.902 161.959C452.902 135.89 443.359 116.338 424.274 103.304C405.19 89.9356 378.404 83.2509 343.917 83.2509C323.494 83.2509 303.572 86.9275 284.152 94.2799C264.732 101.299 247.489 111.157 232.422 123.858C217.355 136.558 205.301 150.93 196.261 166.972C187.221 183.015 182.701 200.227 182.701 218.609C182.701 227.967 186.384 234.819 193.75 239.163C201.451 243.174 213.671 245.68 230.413 246.683C247.489 247.686 270.089 248.187 298.214 248.187Z" fill="black"/>
</mask>
<g mask="url(#mask2_5_254)">
<path d="M96.3172 422.648L87.8036 427.969L87.8264 428.006L96.3172 422.648ZM85.2679 166.471L76.0964 162.382L76.0779 162.424L85.2679 166.471ZM241.462 28.6063L244.557 38.1455L244.638 38.1184L241.462 28.6063ZM430.804 19.5824L428.495 29.3402L428.526 29.3473L430.804 19.5824ZM495.591 46.1527L490.159 54.587L490.246 54.6431L490.335 54.6973L495.591 46.1527ZM539.286 223.121L547.593 228.759L547.644 228.682L539.286 223.121ZM492.578 262.726L496.885 271.784L497.009 271.723L492.578 262.726ZM425.279 283.781L427.016 293.657L427.122 293.637L425.279 283.781ZM347.433 293.807L346.569 283.818L346.154 283.855L345.743 283.925L347.433 293.807ZM298.716 299.824L299.431 309.825L299.521 309.818L299.609 309.81L298.716 299.824ZM243.974 303.333L244.359 313.352L244.45 313.348L244.541 313.343L243.974 303.333ZM184.208 352.463L174.919 356.281L174.961 356.378L184.208 352.463ZM260.045 424.654L257.005 434.21L257.096 434.239L257.186 434.265L260.045 424.654ZM413.226 424.654L415.966 434.301L416.099 434.261L413.226 424.654ZM473.494 405.102L476.884 414.541L476.982 414.504L473.494 405.102ZM552.846 402.595L547.188 410.88L547.402 411.025L547.624 411.16L552.846 402.595ZM546.819 467.266L539.716 460.176L539.666 460.228L539.614 460.28L546.819 467.266ZM499.107 497.847L495.169 488.623L495.042 488.679L499.107 497.847ZM427.288 518.903L425.48 509.04L425.364 509.062L427.288 518.903ZM374.051 240.667L376.156 250.472L376.289 250.442L374.051 240.667ZM430.804 214.097L437.355 221.697L437.369 221.685L430.804 214.097ZM424.274 103.304L418.504 111.512L418.602 111.579L424.274 103.304ZM284.152 94.2799L287.571 103.708L287.644 103.682L287.715 103.655L284.152 94.2799ZM193.75 239.163L188.64 247.795L188.869 247.93L189.104 248.053L193.75 239.163ZM230.413 246.683L229.811 256.692L229.824 256.692L230.413 246.683ZM337.891 516.898C282.628 516.898 235.278 508.521 195.588 492.095L187.894 510.618C230.571 528.282 280.654 536.95 337.891 536.95V516.898ZM195.588 492.095C156.194 475.79 126.063 450.859 104.808 417.291L87.8264 428.006C111.437 465.292 144.922 492.833 187.894 510.618L195.588 492.095ZM104.831 417.327C83.6614 383.581 72.7122 340.118 72.7122 286.288H52.6228C52.6228 342.749 64.1062 390.193 87.8036 427.969L104.831 417.327ZM72.7122 286.288C72.7122 241.582 80.0679 203.077 94.4579 170.518L76.0779 162.424C60.3339 198.046 52.6228 239.417 52.6228 286.288H72.7122ZM94.4393 170.56C109.281 137.388 129.516 109.87 155.109 87.8352L141.989 72.6511C114.011 96.7374 92.0586 126.706 76.0964 162.382L94.4393 170.56ZM155.109 87.8352C180.836 65.6863 210.616 49.1156 244.557 38.1455L238.367 19.0671C201.996 30.8241 169.834 48.6773 141.989 72.6511L155.109 87.8352ZM244.638 38.1184C278.696 26.7865 315.116 21.0864 353.962 21.0864V1.03337C313.119 1.03337 274.54 7.03123 238.286 19.0941L244.638 38.1184ZM353.962 21.0864C380.379 21.0864 405.212 23.8527 428.495 29.3402L433.112 9.82462C408.181 3.94808 381.786 1.03337 353.962 1.03337V21.0864ZM428.526 29.3473C451.986 34.8017 472.491 43.248 490.159 54.587L501.024 37.7184C481.193 24.9937 458.504 15.7262 433.081 9.81762L428.526 29.3473ZM490.335 54.6973C508.081 65.5741 521.772 79.4379 531.609 96.3146L548.972 86.2297C537.38 66.3421 521.271 50.1272 500.848 37.6081L490.335 54.6973ZM531.609 96.3146C541.271 112.892 546.317 132.971 546.317 156.945H566.406C566.406 130.119 560.738 106.416 548.972 86.2297L531.609 96.3146ZM546.317 156.945C546.317 182.664 540.909 202.614 530.929 217.559L547.644 228.682C560.43 209.537 566.406 185.371 566.406 156.945H546.317ZM530.98 217.483C520.658 232.634 506.481 244.732 488.147 253.726L497.009 271.723C518.185 261.334 535.146 247.03 547.593 228.759L530.98 217.483ZM488.272 253.668C469.419 262.598 447.834 269.379 423.436 273.925L427.122 293.637C452.947 288.825 476.229 281.57 496.885 271.784L488.272 253.668ZM423.541 273.906C399.076 278.196 373.419 281.502 346.569 283.818L348.298 303.797C375.688 301.434 401.929 298.057 427.016 293.657L423.541 273.906ZM345.743 283.925C332.352 286.206 316.392 288.182 297.824 289.837L299.609 309.81C318.541 308.124 335.058 306.088 349.124 303.691L345.743 283.925ZM298.001 289.822C279.297 291.156 261.099 292.323 243.406 293.322L244.541 313.343C262.339 312.337 280.636 311.165 299.431 309.825L298.001 289.822ZM243.588 293.313C226.221 293.98 212.811 294.309 203.292 294.309V314.362C213.194 314.362 226.904 314.022 244.359 313.352L243.588 293.313ZM203.292 294.309C197.879 294.309 192.961 294.665 188.688 295.497C184.513 296.311 180.284 297.703 176.793 300.238L188.609 316.455C188.801 316.315 189.846 315.703 192.534 315.179C195.125 314.675 198.662 314.362 203.292 314.362V294.309ZM176.793 300.238C169.336 305.651 167.131 314.455 167.131 322.884H187.221C187.221 320.188 187.584 318.505 187.949 317.542C188.276 316.679 188.561 316.49 188.609 316.455L176.793 300.238ZM167.131 322.884C167.131 333.014 169.947 344.227 174.919 356.281L193.496 348.645C189.094 337.972 187.221 329.466 187.221 322.884H167.131ZM174.961 356.378C180.067 368.393 187.289 380.054 196.501 391.372L212.093 378.726C203.894 368.655 197.724 358.591 193.455 348.546L174.961 356.378ZM196.501 391.372C213.616 412.371 233.777 426.849 257.005 434.21L263.084 415.097C244.125 409.09 227.12 397.164 212.093 378.726L196.501 391.372ZM257.186 434.265C279.826 440.975 307.138 444.205 338.895 444.205V424.153C308.376 424.153 283.12 421.033 262.904 415.042L257.186 434.265ZM338.895 444.205C366.795 444.205 392.511 440.941 415.966 434.301L410.485 415.007C389.075 421.068 365.236 424.153 338.895 424.153V444.205ZM416.099 434.261C438.666 427.537 458.931 420.965 476.884 414.541L470.104 395.664C452.564 401.94 432.651 408.401 410.353 415.046L416.099 434.261ZM476.982 414.504C494.301 408.101 509.331 405.102 522.21 405.102V385.049C506.294 385.049 488.846 388.734 470.005 395.7L476.982 414.504ZM522.21 405.102C534.14 405.102 542.099 407.416 547.188 410.88L558.504 394.311C548.861 387.748 536.396 385.049 522.21 385.049V405.102ZM547.624 411.16C550.904 413.153 554.353 418.057 554.353 430.669H574.442C574.442 415.207 570.19 401.396 558.069 394.031L547.624 411.16ZM554.353 430.669C554.353 439.976 550.145 449.767 539.716 460.176L553.922 474.356C566.931 461.37 574.442 446.764 574.442 430.669H554.353ZM539.614 460.28C529.429 470.746 514.78 480.279 495.169 488.623L503.046 507.071C524.283 498.036 541.442 487.182 554.024 474.253L539.614 460.28ZM495.042 488.679C475.494 497.316 452.341 504.135 425.48 509.04L429.095 528.766C457.145 523.645 481.873 516.426 503.172 507.016L495.042 488.679ZM425.364 509.062C398.629 514.27 369.481 516.898 337.891 516.898V536.95C370.586 536.95 401.037 534.231 429.211 528.744L425.364 509.062ZM298.214 258.214C325.951 258.214 351.943 255.651 376.156 250.472L371.947 230.863C349.284 235.711 324.718 238.16 298.214 238.16V258.214ZM376.289 250.442C400.906 244.825 421.433 235.373 437.355 221.697L424.252 206.496C411.38 217.553 394.071 225.815 371.814 230.892L376.289 250.442ZM437.369 221.685C454.624 206.811 462.946 186.492 462.946 161.959H442.857C442.857 181.543 436.449 195.983 424.239 206.509L437.369 221.685ZM462.946 161.959C462.946 133.08 452.156 110.197 429.947 95.0291L418.602 111.579C434.564 122.479 442.857 138.7 442.857 161.959H462.946ZM430.044 95.0962C408.636 80.1006 379.531 73.2245 343.917 73.2245V93.2772C377.278 93.2772 401.742 99.7698 418.504 111.512L430.044 95.0962ZM343.917 73.2245C322.255 73.2245 301.127 77.1289 280.589 84.9049L287.715 103.655C306.015 96.7252 324.731 93.2772 343.917 93.2772V73.2245ZM280.733 84.852C260.249 92.2559 241.959 102.696 225.941 116.198L238.903 131.519C253.019 119.619 269.216 110.342 287.571 103.708L280.733 84.852ZM225.941 116.198C210.022 129.617 197.174 144.901 187.506 162.056L205.016 171.888C213.429 156.959 224.688 143.501 238.903 131.519L225.941 116.198ZM187.506 162.056C177.621 179.598 172.656 198.503 172.656 218.609H192.746C192.746 201.951 196.821 186.432 205.016 171.888L187.506 162.056ZM172.656 218.609C172.656 231.103 177.877 241.448 188.64 247.795L198.86 230.531C194.89 228.189 192.746 224.831 192.746 218.609H172.656ZM189.104 248.053C198.75 253.077 212.73 255.669 229.811 256.692L231.014 236.675C214.614 235.692 204.151 233.27 198.396 230.273L189.104 248.053ZM229.824 256.692C247.179 257.711 270 258.214 298.214 258.214V238.16C270.179 238.16 247.799 237.66 231.003 236.673L229.824 256.692Z" fill="black"/>
</g>
<path d="M327.846 526.924C271.596 526.924 222.879 518.401 181.696 501.357C140.514 484.311 108.705 458.075 86.2722 422.648C63.8394 386.887 52.6228 341.434 52.6228 286.288C52.6228 240.5 60.1563 200.561 75.2236 166.47C90.625 132.046 111.719 103.304 138.504 80.2428C165.291 57.1817 196.261 39.9692 231.417 28.6061C266.574 16.9082 304.074 11.0597 343.917 11.0597C371.038 11.0597 396.652 13.9002 420.759 19.5823C445.201 25.2643 466.796 34.1207 485.547 46.1525C504.631 57.8505 519.531 72.8903 530.246 91.2718C540.96 109.653 546.317 131.546 546.317 156.945C546.317 184.017 540.625 206.076 529.241 223.12C517.858 239.832 502.289 253.033 482.534 262.725C462.779 272.083 440.346 279.102 415.234 283.781C390.457 288.125 364.509 291.468 337.389 293.807C323.661 296.146 307.422 298.152 288.672 299.824C269.921 301.16 251.674 302.33 233.929 303.332C216.518 304.002 202.958 304.335 193.248 304.335C183.203 304.335 176.339 305.672 172.656 308.346C168.973 311.02 167.131 315.865 167.131 322.884C167.131 331.24 169.475 341.099 174.163 352.463C178.851 363.492 185.546 374.354 194.252 385.049C210.324 404.768 228.906 417.968 250 424.653C271.429 431.003 297.712 434.179 328.851 434.179C355.971 434.179 380.748 431.003 403.181 424.653C425.614 417.968 445.703 411.452 463.449 405.102C481.529 398.417 497.769 395.076 512.165 395.076C525.224 395.076 535.436 397.582 542.801 402.595C550.503 407.274 554.353 416.632 554.353 430.669C554.353 443.37 548.494 455.569 536.774 467.266C525.391 478.964 509.486 489.157 489.063 497.847C468.639 506.871 444.699 513.89 417.244 518.902C389.789 524.249 359.989 526.924 327.846 526.924ZM288.17 248.186C315.29 248.186 340.569 245.68 364.006 240.667C387.444 235.32 406.362 226.463 420.759 214.097C435.491 201.396 442.857 184.017 442.857 161.959C442.857 135.89 433.315 116.338 414.23 103.304C395.145 89.9356 368.359 83.2509 333.873 83.2509C313.449 83.2509 293.526 86.9275 274.107 94.2799C254.688 101.298 237.444 111.157 222.377 123.858C207.31 136.558 195.256 150.93 186.216 166.972C177.176 183.014 172.656 200.227 172.656 218.609C172.656 227.966 176.339 234.819 183.706 239.163C191.406 243.174 203.627 245.68 220.369 246.683C237.444 247.685 260.045 248.186 288.17 248.186Z" fill="#FF2E2E"/>
<mask id="mask3_5_254" style="mask-type:luminance" maskUnits="userSpaceOnUse" x="33" y="1" width="533" height="542">
<path d="M565.401 1.03337H33.0356V542.465H565.401V1.03337Z" fill="white"/>
<path d="M327.846 526.924C271.596 526.924 222.879 518.402 181.696 501.356C140.514 484.311 108.705 458.075 86.2722 422.648C63.8394 386.887 52.6228 341.434 52.6228 286.288C52.6228 240.5 60.1563 200.561 75.2236 166.471C90.625 132.047 111.719 103.304 138.504 80.2428C165.291 57.1819 196.261 39.9694 231.417 28.6063C266.574 16.9084 304.074 11.0599 343.917 11.0599C371.038 11.0599 396.652 13.9004 420.759 19.5825C445.201 25.2645 466.796 34.1209 485.547 46.1527C504.631 57.8507 519.531 72.8903 530.246 91.2718C540.96 109.654 546.317 131.546 546.317 156.945C546.317 184.017 540.625 206.076 529.241 223.121C517.858 239.832 502.289 253.033 482.534 262.726C462.779 272.083 440.346 279.102 415.234 283.781C390.457 288.125 364.509 291.468 337.389 293.807C323.661 296.147 307.422 298.152 288.672 299.824C269.921 301.16 251.674 302.33 233.929 303.333C216.518 304.002 202.958 304.336 193.248 304.336C183.203 304.336 176.339 305.672 172.656 308.346C168.973 311.02 167.131 315.866 167.131 322.884C167.131 331.24 169.475 341.099 174.163 352.463C178.851 363.492 185.546 374.354 194.252 385.049C210.324 404.768 228.906 417.969 250 424.654C271.429 431.004 297.712 434.179 328.851 434.179C355.971 434.179 380.748 431.004 403.181 424.654C425.614 417.969 445.703 411.452 463.449 405.102C481.529 398.417 497.769 395.076 512.165 395.076C525.224 395.076 535.436 397.582 542.801 402.595C550.503 407.274 554.353 416.632 554.353 430.669C554.353 443.37 548.494 455.568 536.774 467.266C525.391 478.964 509.486 489.157 489.063 497.847C468.639 506.871 444.699 513.89 417.244 518.903C389.789 524.25 359.989 526.924 327.846 526.924ZM288.17 248.187C315.29 248.187 340.569 245.68 364.006 240.667C387.444 235.32 406.362 226.463 420.759 214.097C435.491 201.396 442.857 184.017 442.857 161.959C442.857 135.89 433.315 116.338 414.23 103.304C395.145 89.9356 368.359 83.2509 333.873 83.2509C313.449 83.2509 293.526 86.9275 274.107 94.2799C254.688 101.299 237.444 111.157 222.377 123.858C207.31 136.558 195.256 150.93 186.216 166.972C177.176 183.015 172.656 200.227 172.656 218.609C172.656 227.967 176.339 234.819 183.706 239.163C191.406 243.174 203.627 245.68 220.369 246.683C237.444 247.686 260.045 248.187 288.17 248.187Z" fill="black"/>
</mask>
<g mask="url(#mask3_5_254)">
<path d="M86.2721 422.648L77.7586 427.969L77.7814 428.006L86.2721 422.648ZM75.2236 166.471L66.0516 162.382L66.0331 162.424L75.2236 166.471ZM231.417 28.6063L234.512 38.1455L234.594 38.1184L231.417 28.6063ZM420.759 19.5824L418.451 29.3402L418.481 29.3473L420.759 19.5824ZM485.547 46.1527L480.115 54.587L480.202 54.6431L480.291 54.6973L485.547 46.1527ZM529.241 223.121L537.548 228.759L537.599 228.682L529.241 223.121ZM482.534 262.726L486.841 271.784L486.964 271.723L482.534 262.726ZM415.234 283.781L416.972 293.657L417.078 293.637L415.234 283.781ZM337.389 293.807L336.524 283.818L336.109 283.855L335.698 283.925L337.389 293.807ZM288.672 299.824L289.387 309.825L289.476 309.818L289.565 309.81L288.672 299.824ZM233.929 303.333L234.314 313.352L234.406 313.348L234.496 313.343L233.929 303.333ZM174.163 352.463L164.875 356.281L164.916 356.378L174.163 352.463ZM250 424.654L246.961 434.21L247.051 434.239L247.141 434.265L250 424.654ZM403.181 424.654L405.922 434.301L406.054 434.261L403.181 424.654ZM463.449 405.102L466.839 414.541L466.937 414.504L463.449 405.102ZM542.801 402.595L537.144 410.88L537.357 411.025L537.579 411.16L542.801 402.595ZM536.774 467.266L529.672 460.176L529.621 460.228L529.569 460.28L536.774 467.266ZM489.063 497.847L485.124 488.623L484.997 488.679L489.063 497.847ZM417.244 518.903L415.435 509.04L415.32 509.062L417.244 518.903ZM364.006 240.667L366.111 250.472L366.245 250.442L364.006 240.667ZM420.759 214.097L427.31 221.697L427.324 221.685L420.759 214.097ZM414.23 103.304L408.459 111.512L408.558 111.579L414.23 103.304ZM274.107 94.2799L277.526 103.708L277.599 103.682L277.67 103.655L274.107 94.2799ZM183.706 239.163L178.596 247.795L178.824 247.93L179.059 248.053L183.706 239.163ZM220.369 246.683L219.766 256.692L219.779 256.692L220.369 246.683ZM327.846 516.898C272.584 516.898 225.233 508.521 185.544 492.095L177.849 510.618C220.526 528.282 270.609 536.95 327.846 536.95V516.898ZM185.544 492.095C146.149 475.79 116.019 450.859 94.7628 417.291L77.7814 428.006C101.393 465.292 134.877 492.833 177.849 510.618L185.544 492.095ZM94.7864 417.327C73.6171 383.581 62.6674 340.118 62.6674 286.288H42.5781C42.5781 342.749 54.0616 390.193 77.7586 427.969L94.7864 417.327ZM62.6674 286.288C62.6674 241.582 70.0232 203.077 84.4136 170.518L66.0331 162.424C50.2893 198.046 42.5781 239.417 42.5781 286.288H62.6674ZM84.395 170.56C99.2357 137.388 119.472 109.87 145.064 87.8352L131.944 72.6511C103.966 96.7374 82.0136 126.706 66.0516 162.382L84.395 170.56ZM145.064 87.8352C170.792 65.6863 200.571 49.1156 234.512 38.1455L228.323 19.0671C191.951 30.8241 159.789 48.6773 131.944 72.6511L145.064 87.8352ZM234.594 38.1184C268.652 26.7865 305.071 21.0864 343.917 21.0864V1.03337C303.075 1.03337 264.496 7.03123 228.241 19.0941L234.594 38.1184ZM343.917 21.0864C370.334 21.0864 395.167 23.8527 418.451 29.3402L423.067 9.82462C398.136 3.94808 371.742 1.03337 343.917 1.03337V21.0864ZM418.481 29.3473C441.942 34.8017 462.446 43.248 480.115 54.587L490.979 37.7184C471.148 24.9937 448.459 15.7262 423.037 9.81762L418.481 29.3473ZM480.291 54.6973C498.036 65.5741 511.727 79.4379 521.564 96.3146L538.927 86.2297C527.336 66.3421 511.227 50.1272 490.804 37.6081L480.291 54.6973ZM521.564 96.3146C531.226 112.892 536.272 132.971 536.272 156.945H556.361C556.361 130.119 550.694 106.416 538.927 86.2297L521.564 96.3146ZM536.272 156.945C536.272 182.664 530.864 202.614 520.884 217.559L537.599 228.682C550.385 209.537 556.361 185.371 556.361 156.945H536.272ZM520.935 217.483C510.614 232.634 496.436 244.732 478.103 253.726L486.964 271.723C508.14 261.334 525.101 247.03 537.548 228.759L520.935 217.483ZM478.227 253.668C459.374 262.598 437.79 269.379 413.391 273.925L417.078 293.637C442.902 288.825 466.185 281.57 486.841 271.784L478.227 253.668ZM413.496 273.906C389.031 278.196 363.375 281.502 336.524 283.818L338.254 303.797C365.643 301.434 391.884 298.057 416.972 293.657L413.496 273.906ZM335.698 283.925C322.307 286.206 306.347 288.182 287.779 289.837L289.565 309.81C308.496 308.124 325.014 306.088 339.079 303.691L335.698 283.925ZM287.956 289.822C269.253 291.156 251.055 292.323 233.361 293.322L234.496 313.343C252.294 312.337 270.591 311.165 289.387 309.825L287.956 289.822ZM233.543 293.313C216.176 293.98 202.766 294.309 193.248 294.309V314.362C203.149 314.362 216.859 314.022 234.314 313.352L233.543 293.313ZM193.248 294.309C187.834 294.309 182.917 294.665 178.643 295.497C174.469 296.311 170.239 297.703 166.748 300.238L178.564 316.455C178.756 316.315 179.801 315.703 182.49 315.179C185.081 314.675 188.617 314.362 193.248 314.362V294.309ZM166.748 300.238C159.291 305.651 157.087 314.455 157.087 322.884H177.176C177.176 320.188 177.539 318.505 177.904 317.542C178.232 316.679 178.516 316.49 178.564 316.455L166.748 300.238ZM157.087 322.884C157.087 333.014 159.903 344.227 164.875 356.281L183.451 348.645C179.049 337.972 177.176 329.466 177.176 322.884H157.087ZM164.916 356.378C170.023 368.393 177.244 380.054 186.456 391.372L202.048 378.726C193.849 368.655 187.679 358.591 183.41 348.546L164.916 356.378ZM186.456 391.372C203.571 412.371 223.732 426.849 246.961 434.21L253.039 415.097C234.08 409.09 217.076 397.164 202.048 378.726L186.456 391.372ZM247.141 434.265C269.782 440.975 297.094 444.205 328.851 444.205V424.153C298.331 424.153 273.076 421.033 252.859 415.042L247.141 434.265ZM328.851 444.205C356.751 444.205 382.466 440.941 405.922 434.301L400.441 415.007C379.031 421.068 355.191 424.153 328.851 424.153V444.205ZM406.054 434.261C428.621 427.537 448.887 420.965 466.839 414.541L460.059 395.664C442.519 401.94 422.606 408.401 400.308 415.046L406.054 434.261ZM466.937 414.504C484.256 408.101 499.287 405.102 512.165 405.102V385.049C496.249 385.049 478.802 388.734 459.96 395.7L466.937 414.504ZM512.165 405.102C524.095 405.102 532.054 407.416 537.144 410.88L548.459 394.311C538.816 387.748 526.351 385.049 512.165 385.049V405.102ZM537.579 411.16C540.859 413.153 544.308 418.057 544.308 430.669H564.397C564.397 415.207 560.146 401.396 548.024 394.031L537.579 411.16ZM544.308 430.669C544.308 439.976 540.101 449.767 529.672 460.176L543.877 474.356C556.886 461.37 564.397 446.764 564.397 430.669H544.308ZM529.569 460.28C519.384 470.746 504.735 480.279 485.124 488.623L493.001 507.071C514.239 498.036 531.398 487.182 543.979 474.253L529.569 460.28ZM484.997 488.679C465.449 497.316 442.296 504.135 415.435 509.04L419.051 528.766C447.1 523.645 471.828 516.426 493.128 507.016L484.997 488.679ZM415.32 509.062C388.584 514.27 359.436 516.898 327.846 516.898V536.95C360.541 536.95 390.993 534.231 419.167 528.744L415.32 509.062ZM288.17 258.214C315.907 258.214 341.899 255.651 366.111 250.472L361.902 230.863C339.24 235.711 314.674 238.16 288.17 238.16V258.214ZM366.245 250.442C390.862 244.825 411.389 235.373 427.31 221.697L414.208 206.496C401.336 217.553 384.026 225.815 361.769 230.892L366.245 250.442ZM427.324 221.685C444.579 206.811 452.902 186.492 452.902 161.959H432.813C432.813 181.543 426.404 195.983 414.194 206.509L427.324 221.685ZM452.902 161.959C452.902 133.08 442.111 110.197 419.902 95.0291L408.558 111.579C424.519 122.479 432.813 138.7 432.813 161.959H452.902ZM419.999 95.0962C398.591 80.1006 369.486 73.2245 333.873 73.2245V93.2772C367.233 93.2772 391.698 99.7698 408.459 111.512L419.999 95.0962ZM333.873 73.2245C312.211 73.2245 291.083 77.1289 270.544 84.9049L277.67 103.655C295.97 96.7252 314.686 93.2772 333.873 93.2772V73.2245ZM270.688 84.852C250.204 92.2559 231.914 102.696 215.896 116.198L228.858 131.519C242.975 119.619 259.171 110.342 277.526 103.708L270.688 84.852ZM215.896 116.198C199.978 129.617 187.129 144.901 177.461 162.056L194.971 171.888C203.384 156.959 214.643 143.501 228.858 131.519L215.896 116.198ZM177.461 162.056C167.576 179.598 162.611 198.503 162.611 218.609H182.701C182.701 201.951 186.776 186.432 194.971 171.888L177.461 162.056ZM162.611 218.609C162.611 231.103 167.833 241.448 178.596 247.795L188.815 230.531C184.846 228.189 182.701 224.831 182.701 218.609H162.611ZM179.059 248.053C188.706 253.077 202.686 255.669 219.766 256.692L220.97 236.675C204.569 235.692 194.106 233.27 188.352 230.273L179.059 248.053ZM219.779 256.692C237.135 257.711 259.955 258.214 288.17 258.214V238.16C260.134 238.16 237.754 237.66 220.958 236.673L219.779 256.692Z" fill="black"/>
</g>
<path d="M317.801 526.924C261.551 526.924 212.835 518.401 171.652 501.357C130.469 484.311 98.6607 458.075 76.2278 422.648C53.7947 386.887 42.5781 341.434 42.5781 286.288C42.5781 240.5 50.1116 200.561 65.1786 166.47C80.58 132.046 101.674 103.304 128.46 80.2428C155.246 57.1817 186.216 39.9692 221.373 28.6061C256.529 16.9082 294.029 11.0597 333.873 11.0597C360.994 11.0597 386.607 13.9002 410.714 19.5823C435.156 25.2643 456.752 34.1207 475.502 46.1525C494.587 57.8505 509.487 72.8903 520.201 91.2718C530.916 109.653 536.272 131.546 536.272 156.945C536.272 184.017 530.58 206.076 519.197 223.12C507.813 239.832 492.244 253.033 472.489 262.725C452.734 272.083 430.301 279.102 405.19 283.781C380.413 288.125 354.464 291.468 327.344 293.807C313.616 296.146 297.378 298.152 278.627 299.824C259.877 301.16 241.63 302.33 223.884 303.332C206.474 304.002 192.914 304.335 183.203 304.335C173.159 304.335 166.295 305.672 162.611 308.346C158.929 311.02 157.087 315.865 157.087 322.884C157.087 331.24 159.431 341.099 164.119 352.463C168.806 363.492 175.502 374.354 184.208 385.049C200.279 404.768 218.861 417.968 239.956 424.653C261.384 431.003 287.667 434.179 318.806 434.179C345.926 434.179 370.704 431.003 393.136 424.653C415.569 417.968 435.658 411.452 453.404 405.102C471.484 398.417 487.724 395.076 502.121 395.076C515.179 395.076 525.391 397.582 532.756 402.595C540.458 407.274 544.308 416.632 544.308 430.669C544.308 443.37 538.449 455.569 526.73 467.266C515.346 478.964 499.441 489.157 479.018 497.847C458.594 506.871 434.654 513.89 407.199 518.902C379.744 524.249 349.944 526.924 317.801 526.924ZM278.125 248.186C305.246 248.186 330.525 245.68 353.962 240.667C377.399 235.32 396.317 226.463 410.714 214.097C425.446 201.396 432.813 184.017 432.813 161.959C432.813 135.89 423.27 116.338 404.185 103.304C385.101 89.9356 358.314 83.2509 323.828 83.2509C303.404 83.2509 283.482 86.9275 264.063 94.2799C244.643 101.298 227.399 111.157 212.333 123.858C197.266 136.558 185.212 150.93 176.172 166.972C167.131 183.014 162.611 200.227 162.611 218.609C162.611 227.966 166.295 234.819 173.661 239.163C181.362 243.174 193.582 245.68 210.324 246.683C227.399 247.685 250 248.186 278.125 248.186Z" fill="#23E836"/>
<mask id="mask4_5_254" style="mask-type:luminance" maskUnits="userSpaceOnUse" x="22" y="1" width="534" height="542">
<path d="M555.357 1.03337H22.991V542.465H555.357V1.03337Z" fill="white"/>
<path d="M317.801 526.924C261.551 526.924 212.835 518.402 171.652 501.356C130.469 484.311 98.6607 458.075 76.2278 422.648C53.7947 386.887 42.5781 341.434 42.5781 286.288C42.5781 240.5 50.1116 200.561 65.1786 166.471C80.58 132.047 101.674 103.304 128.46 80.2428C155.246 57.1819 186.216 39.9694 221.373 28.6063C256.529 16.9084 294.029 11.0599 333.873 11.0599C360.994 11.0599 386.607 13.9004 410.714 19.5825C435.156 25.2645 456.752 34.1209 475.502 46.1527C494.587 57.8507 509.487 72.8903 520.201 91.2718C530.916 109.654 536.272 131.546 536.272 156.945C536.272 184.017 530.58 206.076 519.197 223.121C507.813 239.832 492.244 253.033 472.489 262.726C452.734 272.083 430.301 279.102 405.19 283.781C380.413 288.125 354.464 291.468 327.344 293.807C313.616 296.147 297.378 298.152 278.627 299.824C259.877 301.16 241.63 302.33 223.884 303.333C206.474 304.002 192.914 304.336 183.203 304.336C173.159 304.336 166.295 305.672 162.611 308.346C158.929 311.02 157.087 315.866 157.087 322.884C157.087 331.24 159.431 341.099 164.119 352.463C168.806 363.492 175.502 374.354 184.208 385.049C200.279 404.768 218.861 417.969 239.956 424.654C261.384 431.004 287.667 434.179 318.806 434.179C345.926 434.179 370.704 431.004 393.136 424.654C415.569 417.969 435.658 411.452 453.404 405.102C471.484 398.417 487.724 395.076 502.121 395.076C515.179 395.076 525.391 397.582 532.756 402.595C540.458 407.274 544.308 416.632 544.308 430.669C544.308 443.37 538.449 455.568 526.73 467.266C515.346 478.964 499.441 489.157 479.018 497.847C458.594 506.871 434.654 513.89 407.199 518.903C379.744 524.25 349.944 526.924 317.801 526.924ZM278.125 248.187C305.246 248.187 330.525 245.68 353.962 240.667C377.399 235.32 396.317 226.463 410.714 214.097C425.446 201.396 432.813 184.017 432.813 161.959C432.813 135.89 423.27 116.338 404.185 103.304C385.101 89.9356 358.314 83.2509 323.828 83.2509C303.404 83.2509 283.482 86.9275 264.063 94.2799C244.643 101.299 227.399 111.157 212.333 123.858C197.266 136.558 185.212 150.93 176.172 166.972C167.131 183.015 162.611 200.227 162.611 218.609C162.611 227.967 166.295 234.819 173.661 239.163C181.362 243.174 193.582 245.68 210.324 246.683C227.399 247.686 250 248.187 278.125 248.187Z" fill="black"/>
</mask>
<g mask="url(#mask4_5_254)">
<path d="M76.2278 422.648L67.7142 427.969L67.7369 428.006L76.2278 422.648ZM65.1785 166.471L56.0069 162.382L55.9884 162.424L65.1785 166.471ZM221.373 28.6063L224.468 38.1455L224.549 38.1184L221.373 28.6063ZM410.714 19.5824L408.406 29.3402L408.436 29.3473L410.714 19.5824ZM475.502 46.1527L470.07 54.587L470.157 54.6431L470.246 54.6973L475.502 46.1527ZM519.196 223.121L527.504 228.759L527.554 228.682L519.196 223.121ZM472.488 262.726L476.796 271.784L476.919 271.723L472.488 262.726ZM405.19 283.781L406.927 293.657L407.033 293.637L405.19 283.781ZM327.343 293.807L326.479 283.818L326.064 283.855L325.653 283.925L327.343 293.807ZM278.627 299.824L279.342 309.825L279.432 309.818L279.52 309.81L278.627 299.824ZM223.884 303.333L224.27 313.352L224.361 313.348L224.451 313.343L223.884 303.333ZM164.119 352.463L154.83 356.281L154.871 356.378L164.119 352.463ZM239.956 424.654L236.916 434.21L237.006 434.239L237.096 434.265L239.956 424.654ZM393.136 424.654L395.877 434.301L396.009 434.261L393.136 424.654ZM453.404 405.102L456.794 414.541L456.893 414.504L453.404 405.102ZM532.756 402.595L527.099 410.88L527.313 411.025L527.534 411.16L532.756 402.595ZM526.73 467.266L519.627 460.176L519.576 460.228L519.525 460.28L526.73 467.266ZM479.018 497.847L475.079 488.623L474.953 488.679L479.018 497.847ZM407.198 518.903L405.391 509.04L405.275 509.062L407.198 518.903ZM353.962 240.667L356.066 250.472L356.2 250.442L353.962 240.667ZM410.714 214.097L417.266 221.697L417.279 221.685L410.714 214.097ZM404.185 103.304L398.414 111.512L398.513 111.579L404.185 103.304ZM264.063 94.2799L267.481 103.708L267.554 103.682L267.625 103.655L264.063 94.2799ZM173.661 239.163L168.551 247.795L168.779 247.93L169.014 248.053L173.661 239.163ZM210.324 246.683L209.722 256.692L209.734 256.692L210.324 246.683ZM317.801 516.898C262.538 516.898 215.189 508.521 175.499 492.095L167.805 510.618C210.481 528.282 260.564 536.95 317.801 536.95V516.898ZM175.499 492.095C136.105 475.79 105.974 450.859 84.7185 417.291L67.7369 428.006C91.3478 465.292 124.833 492.833 167.805 510.618L175.499 492.095ZM84.7407 417.327C63.5723 383.581 52.6227 340.118 52.6227 286.288H32.5334C32.5334 342.749 44.0169 390.193 67.7142 427.969L84.7407 417.327ZM52.6227 286.288C52.6227 241.582 59.9785 203.077 74.3685 170.518L55.9884 162.424C40.2446 198.046 32.5334 239.417 32.5334 286.288H52.6227ZM74.3499 170.56C89.1914 137.388 109.427 109.87 135.02 87.8352L121.9 72.6511C93.9214 96.7374 71.9692 126.706 56.0069 162.382L74.3499 170.56ZM135.02 87.8352C160.747 65.6863 190.526 49.1156 224.468 38.1455L218.278 19.0671C181.906 30.8241 149.744 48.6773 121.9 72.6511L135.02 87.8352ZM224.549 38.1184C258.607 26.7865 295.027 21.0864 333.873 21.0864V1.03337C293.03 1.03337 254.451 7.03123 218.196 19.0941L224.549 38.1184ZM333.873 21.0864C360.289 21.0864 385.123 23.8527 408.406 29.3402L413.023 9.82462C388.091 3.94808 361.697 1.03337 333.873 1.03337V21.0864ZM408.436 29.3473C431.897 34.8017 452.401 43.248 470.07 54.587L480.934 37.7184C461.103 24.9937 438.414 15.7262 412.992 9.81762L408.436 29.3473ZM470.246 54.6973C487.991 65.5741 501.683 79.4379 511.519 96.3146L528.883 86.2297C517.291 66.3421 501.182 50.1272 480.758 37.6081L470.246 54.6973ZM511.519 96.3146C521.181 112.892 526.228 132.971 526.228 156.945H546.317C546.317 130.119 540.648 106.416 528.883 86.2297L511.519 96.3146ZM526.228 156.945C526.228 182.664 520.82 202.614 510.839 217.559L527.554 228.682C540.341 209.537 546.317 185.371 546.317 156.945H526.228ZM510.891 217.483C500.568 232.634 486.391 244.732 468.058 253.726L476.919 271.723C498.096 261.334 515.057 247.03 527.504 228.759L510.891 217.483ZM468.183 253.668C449.329 262.598 427.745 269.379 403.346 273.925L407.033 293.637C432.858 288.825 456.14 281.57 476.796 271.784L468.183 253.668ZM403.452 273.906C378.986 278.196 353.33 281.502 326.479 283.818L328.208 303.797C355.598 301.434 381.839 298.057 406.927 293.657L403.452 273.906ZM325.653 283.925C312.263 286.206 296.303 288.182 277.734 289.837L279.52 309.81C298.451 308.124 314.968 306.088 329.034 303.691L325.653 283.925ZM277.912 289.822C259.208 291.156 241.01 292.323 223.316 293.322L224.451 313.343C242.249 312.337 260.547 311.165 279.342 309.825L277.912 289.822ZM223.499 293.313C206.132 293.98 192.721 294.309 183.203 294.309V314.362C193.104 314.362 206.814 314.022 224.27 313.352L223.499 293.313ZM183.203 294.309C177.789 294.309 172.872 294.665 168.599 295.497C164.424 296.311 160.195 297.703 156.704 300.238L168.52 316.455C168.711 316.315 169.756 315.703 172.445 315.179C175.036 314.675 178.573 314.362 183.203 314.362V294.309ZM156.704 300.238C149.246 305.651 147.042 314.455 147.042 322.884H167.131C167.131 320.188 167.494 318.505 167.86 317.542C168.187 316.679 168.471 316.49 168.52 316.455L156.704 300.238ZM147.042 322.884C147.042 333.014 149.858 344.227 154.83 356.281L173.406 348.645C169.004 337.972 167.131 329.466 167.131 322.884H147.042ZM154.871 356.378C159.978 368.393 167.199 380.054 176.412 391.372L192.004 378.726C183.805 368.655 177.634 358.591 173.366 348.546L154.871 356.378ZM176.412 391.372C193.527 412.371 213.688 426.849 236.916 434.21L242.995 415.097C224.036 409.09 207.031 397.164 192.004 378.726L176.412 391.372ZM237.096 434.265C259.737 440.975 287.048 444.205 318.806 444.205V424.153C288.286 424.153 263.031 421.033 242.814 415.042L237.096 434.265ZM318.806 444.205C346.706 444.205 372.422 440.941 395.877 434.301L390.396 415.007C368.986 421.068 345.147 424.153 318.806 424.153V444.205ZM396.009 434.261C418.576 427.537 438.842 420.965 456.794 414.541L450.014 395.664C432.474 401.94 412.561 408.401 390.263 415.046L396.009 434.261ZM456.893 414.504C474.211 408.101 489.242 405.102 502.121 405.102V385.049C486.205 385.049 468.757 388.734 449.916 395.7L456.893 414.504ZM502.121 405.102C514.051 405.102 522.009 407.416 527.099 410.88L538.415 394.311C528.772 387.748 516.306 385.049 502.121 385.049V405.102ZM527.534 411.16C530.814 413.153 534.263 418.057 534.263 430.669H554.353C554.353 415.207 550.101 401.396 537.98 394.031L527.534 411.16ZM534.263 430.669C534.263 439.976 530.056 449.767 519.627 460.176L533.833 474.356C546.841 461.37 554.353 446.764 554.353 430.669H534.263ZM519.525 460.28C509.34 470.746 494.691 480.279 475.079 488.623L482.956 507.071C504.193 498.036 521.353 487.182 533.935 474.253L519.525 460.28ZM474.953 488.679C455.404 497.316 432.252 504.135 405.391 509.04L409.006 528.766C437.056 523.645 461.783 516.426 483.083 507.016L474.953 488.679ZM405.275 509.062C378.539 514.27 349.391 516.898 317.801 516.898V536.95C350.496 536.95 380.948 534.231 409.122 528.744L405.275 509.062ZM278.125 258.214C305.862 258.214 331.853 255.651 356.066 250.472L351.858 230.863C329.195 235.711 304.628 238.16 278.125 238.16V258.214ZM356.2 250.442C380.817 244.825 401.343 235.373 417.266 221.697L404.163 206.496C391.291 217.553 373.982 225.815 351.724 230.892L356.2 250.442ZM417.279 221.685C434.534 206.811 442.857 186.492 442.857 161.959H422.768C422.768 181.543 416.359 195.983 404.149 206.509L417.279 221.685ZM442.857 161.959C442.857 133.08 432.066 110.197 409.858 95.0291L398.513 111.579C414.474 122.479 422.768 138.7 422.768 161.959H442.857ZM409.955 95.0962C388.546 80.1006 359.441 73.2245 323.828 73.2245V93.2772C357.188 93.2772 381.653 99.7698 398.414 111.512L409.955 95.0962ZM323.828 73.2245C302.166 73.2245 281.038 77.1289 260.5 84.9049L267.625 103.655C285.926 96.7252 304.642 93.2772 323.828 93.2772V73.2245ZM260.644 84.852C240.159 92.2559 221.869 102.696 205.852 116.198L218.814 131.519C232.93 119.619 249.126 110.342 267.481 103.708L260.644 84.852ZM205.852 116.198C189.933 129.617 177.085 144.901 167.417 162.056L184.927 171.888C193.339 156.959 204.598 143.501 218.814 131.519L205.852 116.198ZM167.417 162.056C157.532 179.598 152.567 198.503 152.567 218.609H172.656C172.656 201.951 176.731 186.432 184.927 171.888L167.417 162.056ZM152.567 218.609C152.567 231.103 157.788 241.448 168.551 247.795L178.771 230.531C174.801 228.189 172.656 224.831 172.656 218.609H152.567ZM169.014 248.053C178.661 253.077 192.641 255.669 209.722 256.692L210.925 236.675C194.524 235.692 184.062 233.27 178.307 230.273L169.014 248.053ZM209.734 256.692C227.09 257.711 249.911 258.214 278.125 258.214V238.16C250.089 238.16 227.709 237.66 210.914 236.673L209.734 256.692Z" fill="black"/>
</g>
<path d="M307.756 526.924C251.506 526.924 202.79 518.401 161.607 501.357C120.424 484.311 88.6157 458.075 66.183 422.648C43.75 386.887 32.5334 341.434 32.5334 286.288C32.5334 240.5 40.0669 200.561 55.1339 166.47C70.5357 132.046 91.6292 103.304 118.415 80.2428C145.201 57.1817 176.172 39.9692 211.328 28.6061C246.484 16.9082 283.984 11.0597 323.828 11.0597C350.948 11.0597 376.563 13.9002 400.67 19.5823C425.111 25.2643 446.707 34.1207 465.458 46.1525C484.542 57.8505 499.441 72.8903 510.156 91.2718C520.871 109.653 526.228 131.546 526.228 156.945C526.228 184.017 520.536 206.076 509.152 223.12C497.769 239.832 482.199 253.033 462.444 262.725C442.689 272.083 420.256 279.102 395.145 283.781C370.368 288.125 344.42 291.468 317.299 293.807C303.571 296.146 287.333 298.152 268.583 299.824C249.832 301.16 231.585 302.33 213.839 303.332C196.429 304.002 182.869 304.335 173.159 304.335C163.114 304.335 156.25 305.672 152.567 308.346C148.884 311.02 147.042 315.865 147.042 322.884C147.042 331.24 149.386 341.099 154.074 352.463C158.761 363.492 165.457 374.354 174.163 385.049C190.234 404.768 208.817 417.968 229.911 424.653C251.339 431.003 277.623 434.179 308.761 434.179C335.881 434.179 360.658 431.003 383.091 424.653C405.524 417.968 425.613 411.452 443.359 405.102C461.44 398.417 477.679 395.076 492.076 395.076C505.134 395.076 515.346 397.582 522.712 402.595C530.414 407.274 534.263 416.632 534.263 430.669C534.263 443.37 528.404 455.569 516.685 467.266C505.301 478.964 489.397 489.157 468.974 497.847C448.549 506.871 424.609 513.89 397.154 518.902C369.699 524.249 339.899 526.924 307.756 526.924ZM268.081 248.186C295.201 248.186 320.48 245.68 343.917 240.667C367.354 235.32 386.273 226.463 400.67 214.097C415.402 201.396 422.768 184.017 422.768 161.959C422.768 135.89 413.226 116.338 394.141 103.304C375.056 89.9356 348.27 83.2509 313.783 83.2509C293.36 83.2509 273.437 86.9275 254.018 94.2799C234.599 101.298 217.355 111.157 202.288 123.858C187.221 136.558 175.167 150.93 166.127 166.972C157.087 183.014 152.567 200.227 152.567 218.609C152.567 227.966 156.25 234.819 163.616 239.163C171.317 243.174 183.538 245.68 200.279 246.683C217.355 247.685 239.956 248.186 268.081 248.186Z" fill="#E8DF0C"/>
<mask id="mask5_5_254" style="mask-type:luminance" maskUnits="userSpaceOnUse" x="12" y="1" width="534" height="542">
<path d="M545.313 1.03337H12.9465V542.465H545.313V1.03337Z" fill="white"/>
<path d="M307.757 526.924C251.507 526.924 202.79 518.402 161.607 501.356C120.424 484.311 88.6159 458.075 66.1833 422.648C43.7503 386.887 32.5337 341.434 32.5337 286.288C32.5337 240.5 40.0671 200.561 55.1341 166.471C70.5359 132.047 91.6295 103.304 118.415 80.2428C145.202 57.1819 176.172 39.9694 211.328 28.6063C246.484 16.9084 283.984 11.0599 323.828 11.0599C350.949 11.0599 376.563 13.9004 400.67 19.5825C425.112 25.2645 446.707 34.1209 465.458 46.1527C484.542 57.8507 499.442 72.8903 510.157 91.2718C520.871 109.654 526.228 131.546 526.228 156.945C526.228 184.017 520.536 206.076 509.152 223.121C497.769 239.832 482.199 253.033 462.444 262.726C442.689 272.083 420.257 279.102 395.145 283.781C370.368 288.125 344.42 291.468 317.299 293.807C303.572 296.147 287.333 298.152 268.583 299.824C249.832 301.16 231.585 302.33 213.839 303.333C196.429 304.002 182.869 304.336 173.159 304.336C163.114 304.336 156.25 305.672 152.567 308.346C148.884 311.02 147.042 315.866 147.042 322.884C147.042 331.24 149.386 341.099 154.074 352.463C158.762 363.492 165.457 374.354 174.163 385.049C190.234 404.768 208.817 417.969 229.911 424.654C251.339 431.004 277.623 434.179 308.762 434.179C335.882 434.179 360.659 431.004 383.092 424.654C405.524 417.969 425.614 411.452 443.359 405.102C461.44 398.417 477.679 395.076 492.076 395.076C505.134 395.076 515.347 397.582 522.712 402.595C530.414 407.274 534.264 416.632 534.264 430.669C534.264 443.37 528.404 455.568 516.685 467.266C505.302 478.964 489.397 489.157 468.974 497.847C448.549 506.871 424.609 513.89 397.154 518.903C369.699 524.25 339.899 526.924 307.757 526.924ZM268.081 248.187C295.201 248.187 320.48 245.68 343.917 240.667C367.354 235.32 386.273 226.463 400.67 214.097C415.402 201.396 422.768 184.017 422.768 161.959C422.768 135.89 413.226 116.338 394.141 103.304C375.056 89.9356 348.27 83.2509 313.784 83.2509C293.36 83.2509 273.437 86.9275 254.018 94.2799C234.599 101.299 217.355 111.157 202.288 123.858C187.221 136.558 175.167 150.93 166.127 166.972C157.087 183.015 152.567 200.227 152.567 218.609C152.567 227.967 156.25 234.819 163.617 239.163C171.317 243.174 183.538 245.68 200.279 246.683C217.355 247.686 239.956 248.187 268.081 248.187Z" fill="black"/>
</mask>
<g mask="url(#mask5_5_254)">
<path d="M66.1832 422.648L57.6697 427.969L57.6924 428.006L66.1832 422.648ZM55.1341 166.471L45.9624 162.382L45.944 162.424L55.1341 166.471ZM211.328 28.6063L214.423 38.1455L214.504 38.1184L211.328 28.6063ZM400.67 19.5824L398.362 29.3402L398.392 29.3473L400.67 19.5824ZM465.458 46.1527L460.026 54.587L460.113 54.6431L460.202 54.6973L465.458 46.1527ZM509.152 223.121L517.459 228.759L517.51 228.682L509.152 223.121ZM462.444 262.726L466.752 271.784L466.875 271.723L462.444 262.726ZM395.145 283.781L396.883 293.657L396.989 293.637L395.145 283.781ZM317.299 293.807L316.434 283.818L316.019 283.855L315.609 283.925L317.299 293.807ZM268.583 299.824L269.298 309.825L269.387 309.818L269.476 309.81L268.583 299.824ZM213.839 303.333L214.225 313.352L214.317 313.348L214.407 313.343L213.839 303.333ZM154.074 352.463L144.786 356.281L144.827 356.378L154.074 352.463ZM229.911 424.654L226.872 434.21L226.962 434.239L227.052 434.265L229.911 424.654ZM383.092 424.654L385.833 434.301L385.964 434.261L383.092 424.654ZM443.359 405.102L446.749 414.541L446.848 414.504L443.359 405.102ZM522.712 402.595L517.054 410.88L517.268 411.025L517.49 411.16L522.712 402.595ZM516.685 467.266L509.583 460.176L509.532 460.228L509.48 460.28L516.685 467.266ZM468.974 497.847L465.035 488.623L464.908 488.679L468.974 497.847ZM397.154 518.903L395.346 509.04L395.231 509.062L397.154 518.903ZM343.917 240.667L346.022 250.472L346.156 250.442L343.917 240.667ZM400.67 214.097L407.221 221.697L407.235 221.685L400.67 214.097ZM394.141 103.304L388.37 111.512L388.469 111.579L394.141 103.304ZM254.018 94.2799L257.437 103.708L257.509 103.682L257.581 103.655L254.018 94.2799ZM163.617 239.163L158.507 247.795L158.734 247.93L158.969 248.053L163.617 239.163ZM200.279 246.683L199.677 256.692L199.689 256.692L200.279 246.683ZM307.757 516.898C252.494 516.898 205.144 508.521 165.454 492.095L157.76 510.618C200.437 528.282 250.519 536.95 307.757 536.95V516.898ZM165.454 492.095C126.06 475.79 95.9294 450.859 74.6737 417.291L57.6924 428.006C81.303 465.292 114.788 492.833 157.76 510.618L165.454 492.095ZM74.6966 417.327C53.5279 383.581 42.5783 340.118 42.5783 286.288H22.489C22.489 342.749 33.9724 390.193 57.6697 427.969L74.6966 417.327ZM42.5783 286.288C42.5783 241.582 49.9341 203.077 64.3242 170.518L45.944 162.424C30.2002 198.046 22.489 239.417 22.489 286.288H42.5783ZM64.3057 170.56C79.1473 137.388 99.383 109.87 124.975 87.8352L111.855 72.6511C83.8766 96.7374 61.9246 126.706 45.9624 162.382L64.3057 170.56ZM124.975 87.8352C150.703 65.6863 180.482 49.1156 214.423 38.1455L208.234 19.0671C171.862 30.8241 139.7 48.6773 111.855 72.6511L124.975 87.8352ZM214.504 38.1184C248.563 26.7865 284.982 21.0864 323.828 21.0864V1.03337C282.986 1.03337 244.407 7.03123 208.152 19.0941L214.504 38.1184ZM323.828 21.0864C350.244 21.0864 375.078 23.8527 398.362 29.3402L402.978 9.82462C378.047 3.94808 351.653 1.03337 323.828 1.03337V21.0864ZM398.392 29.3473C421.853 34.8017 442.357 43.248 460.026 54.587L470.89 37.7184C451.059 24.9937 428.37 15.7262 402.948 9.81762L398.392 29.3473ZM460.202 54.6973C477.947 65.5741 491.638 79.4379 501.475 96.3146L518.838 86.2297C507.247 66.3421 491.138 50.1272 470.714 37.6081L460.202 54.6973ZM501.475 96.3146C511.137 112.892 516.183 132.971 516.183 156.945H536.272C536.272 130.119 530.604 106.416 518.838 86.2297L501.475 96.3146ZM516.183 156.945C516.183 182.664 510.775 202.614 500.795 217.559L517.51 228.682C530.296 209.537 536.272 185.371 536.272 156.945H516.183ZM500.846 217.483C490.524 232.634 476.347 244.732 458.014 253.726L466.875 271.723C488.051 261.334 505.012 247.03 517.459 228.759L500.846 217.483ZM458.138 253.668C439.284 262.598 417.701 269.379 393.302 273.925L396.989 293.637C422.813 288.825 446.096 281.57 466.752 271.784L458.138 253.668ZM393.407 273.906C368.942 278.196 343.286 281.502 316.434 283.818L318.164 303.797C345.554 301.434 371.794 298.057 396.883 293.657L393.407 273.906ZM315.609 283.925C302.218 286.206 286.258 288.182 267.689 289.837L269.476 309.81C288.407 308.124 304.924 306.088 318.989 303.691L315.609 283.925ZM267.867 289.822C249.164 291.156 230.966 292.323 213.272 293.322L214.407 313.343C232.205 312.337 250.502 311.165 269.298 309.825L267.867 289.822ZM213.454 293.313C196.087 293.98 182.677 294.309 173.159 294.309V314.362C183.059 314.362 196.769 314.022 214.225 313.352L213.454 293.313ZM173.159 294.309C167.744 294.309 162.828 294.665 158.554 295.497C154.379 296.311 150.15 297.703 146.659 300.238L158.475 316.455C158.667 316.315 159.712 315.703 162.401 315.179C164.992 314.675 168.528 314.362 173.159 314.362V294.309ZM146.659 300.238C139.202 305.651 136.998 314.455 136.998 322.884H157.087C157.087 320.188 157.45 318.505 157.815 317.542C158.143 316.679 158.427 316.49 158.475 316.455L146.659 300.238ZM136.998 322.884C136.998 333.014 139.814 344.227 144.786 356.281L163.362 348.645C158.959 337.972 157.087 329.466 157.087 322.884H136.998ZM144.827 356.378C149.934 368.393 157.154 380.054 166.367 391.372L181.959 378.726C173.76 368.655 167.59 358.591 163.321 348.546L144.827 356.378ZM166.367 391.372C183.482 412.371 203.643 426.849 226.872 434.21L232.95 415.097C213.991 409.09 196.987 397.164 181.959 378.726L166.367 391.372ZM227.052 434.265C249.693 440.975 277.004 444.205 308.762 444.205V424.153C278.242 424.153 252.987 421.033 232.769 415.042L227.052 434.265ZM308.762 444.205C336.662 444.205 362.377 440.941 385.833 434.301L380.352 415.007C358.942 421.068 335.102 424.153 308.762 424.153V444.205ZM385.964 434.261C408.532 427.537 428.798 420.965 446.749 414.541L439.969 395.664C422.429 401.94 402.517 408.401 380.219 415.046L385.964 434.261ZM446.848 414.504C464.167 408.101 479.198 405.102 492.076 405.102V385.049C476.16 385.049 458.713 388.734 439.871 395.7L446.848 414.504ZM492.076 405.102C504.006 405.102 511.964 407.416 517.054 410.88L528.37 394.311C518.727 387.748 506.262 385.049 492.076 385.049V405.102ZM517.49 411.16C520.769 413.153 524.219 418.057 524.219 430.669H544.308C544.308 415.207 540.057 401.396 527.935 394.031L517.49 411.16ZM524.219 430.669C524.219 439.976 520.012 449.767 509.583 460.176L523.788 474.356C536.797 461.37 544.308 446.764 544.308 430.669H524.219ZM509.48 460.28C499.295 470.746 484.646 480.279 465.035 488.623L472.912 507.071C494.149 498.036 511.309 487.182 523.89 474.253L509.48 460.28ZM464.908 488.679C445.359 497.316 422.207 504.135 395.346 509.04L398.962 528.766C427.011 523.645 451.739 516.426 473.039 507.016L464.908 488.679ZM395.231 509.062C368.495 514.27 339.347 516.898 307.757 516.898V536.95C340.452 536.95 370.904 534.231 399.078 528.744L395.231 509.062ZM268.081 258.214C295.818 258.214 321.809 255.651 346.022 250.472L341.813 230.863C319.151 235.711 294.584 238.16 268.081 238.16V258.214ZM346.156 250.442C370.773 244.825 391.299 235.373 407.221 221.697L394.119 206.496C381.247 217.553 363.937 225.815 341.679 230.892L346.156 250.442ZM407.235 221.685C424.489 206.811 432.813 186.492 432.813 161.959H412.724C412.724 181.543 406.315 195.983 394.104 206.509L407.235 221.685ZM432.813 161.959C432.813 133.08 422.022 110.197 399.813 95.0291L388.469 111.579C404.429 122.479 412.724 138.7 412.724 161.959H432.813ZM399.91 95.0962C378.502 80.1006 349.397 73.2245 313.784 73.2245V93.2772C347.144 93.2772 371.609 99.7698 388.37 111.512L399.91 95.0962ZM313.784 73.2245C292.122 73.2245 270.994 77.1289 250.455 84.9049L257.581 103.655C275.881 96.7252 294.597 93.2772 313.784 93.2772V73.2245ZM250.599 84.852C230.114 92.2559 211.824 102.696 195.807 116.198L208.769 131.519C222.886 119.619 239.082 110.342 257.437 103.708L250.599 84.852ZM195.807 116.198C179.889 129.617 167.04 144.901 157.372 162.056L174.882 171.888C183.294 156.959 194.554 143.501 208.769 131.519L195.807 116.198ZM157.372 162.056C147.487 179.598 142.522 198.503 142.522 218.609H162.612C162.612 201.951 166.687 186.432 174.882 171.888L157.372 162.056ZM142.522 218.609C142.522 231.103 147.744 241.448 158.507 247.795L168.726 230.531C164.757 228.189 162.612 224.831 162.612 218.609H142.522ZM158.969 248.053C168.617 253.077 182.597 255.669 199.677 256.692L200.881 236.675C184.48 235.692 174.017 233.27 168.263 230.273L158.969 248.053ZM199.689 256.692C217.046 257.711 239.866 258.214 268.081 258.214V238.16C240.045 238.16 217.664 237.66 200.869 236.673L199.689 256.692Z" fill="black"/>
</g>
<path d="M297.712 526.924C241.462 526.924 192.746 518.401 151.563 501.357C110.379 484.311 78.5713 458.075 56.1383 422.648C33.7053 386.887 22.4888 341.434 22.4888 286.288C22.4888 240.5 30.0222 200.561 45.0892 166.47C60.491 132.046 81.5849 103.304 108.371 80.2428C135.156 57.1817 166.127 39.9692 201.284 28.6061C236.44 16.9082 273.939 11.0597 313.784 11.0597C340.904 11.0597 366.518 13.9002 390.625 19.5823C415.066 25.2643 436.663 34.1207 455.413 46.1525C474.498 57.8505 489.397 72.8903 500.111 91.2718C510.826 109.653 516.183 131.546 516.183 156.945C516.183 184.017 510.491 206.076 499.107 223.12C487.724 239.832 472.154 253.033 452.399 262.725C432.645 272.083 410.212 279.102 385.101 283.781C360.324 288.125 334.375 291.468 307.254 293.807C293.526 296.146 277.289 298.152 258.538 299.824C239.788 301.16 221.541 302.33 203.795 303.332C186.384 304.002 172.824 304.335 163.113 304.335C153.069 304.335 146.206 305.672 142.522 308.346C138.839 311.02 136.998 315.865 136.998 322.884C136.998 331.24 139.341 341.099 144.029 352.463C148.717 363.492 155.413 374.354 164.119 385.049C180.19 404.768 198.772 417.968 219.866 424.653C241.294 431.003 267.578 434.179 298.716 434.179C325.837 434.179 350.614 431.003 373.047 424.653C395.479 417.968 415.569 411.452 433.315 405.102C451.395 398.417 467.634 395.076 482.031 395.076C495.089 395.076 505.301 397.582 512.667 402.595C520.369 407.274 524.219 416.632 524.219 430.669C524.219 443.37 518.36 455.569 506.641 467.266C495.257 478.964 479.352 489.157 458.929 497.847C438.505 506.871 414.564 513.89 387.109 518.902C359.654 524.249 329.855 526.924 297.712 526.924ZM258.036 248.186C285.156 248.186 310.436 245.68 333.873 240.667C357.31 235.32 376.228 226.463 390.625 214.097C405.357 201.396 412.724 184.017 412.724 161.959C412.724 135.89 403.181 116.338 384.096 103.304C365.011 89.9356 338.225 83.2509 303.738 83.2509C283.315 83.2509 263.393 86.9275 243.974 94.2799C224.554 101.298 207.31 111.157 192.244 123.858C177.176 136.558 165.123 150.93 156.083 166.972C147.042 183.014 142.522 200.227 142.522 218.609C142.522 227.966 146.206 234.819 153.571 239.163C161.273 243.174 173.493 245.68 190.234 246.683C207.31 247.685 229.911 248.186 258.036 248.186Z" fill="url(#paint1_linear_5_254)"/>
<mask id="mask6_5_254" style="mask-type:luminance" maskUnits="userSpaceOnUse" x="2" y="1" width="534" height="542">
<path d="M535.268 1.03337H2.90186V542.465H535.268V1.03337Z" fill="white"/>
<path d="M297.712 526.924C241.462 526.924 192.746 518.402 151.563 501.356C110.379 484.311 78.5716 458.075 56.1386 422.648C33.7056 386.887 22.489 341.434 22.489 286.288C22.489 240.5 30.0224 200.561 45.0894 166.471C60.4912 132.047 81.5852 103.304 108.371 80.2428C135.157 57.1819 166.127 39.9694 201.284 28.6063C236.44 16.9084 273.939 11.0599 313.784 11.0599C340.904 11.0599 366.518 13.9004 390.625 19.5825C415.067 25.2645 436.663 34.1209 455.413 46.1527C474.498 57.8507 489.397 72.8903 500.112 91.2718C510.827 109.654 516.183 131.546 516.183 156.945C516.183 184.017 510.491 206.076 499.107 223.121C487.724 239.832 472.154 253.033 452.399 262.726C432.645 272.083 410.212 279.102 385.101 283.781C360.324 288.125 334.375 291.468 307.254 293.807C293.527 296.147 277.289 298.152 258.538 299.824C239.788 301.16 221.541 302.33 203.795 303.333C186.384 304.002 172.824 304.336 163.114 304.336C153.069 304.336 146.206 305.672 142.522 308.346C138.839 311.02 136.998 315.866 136.998 322.884C136.998 331.24 139.342 341.099 144.029 352.463C148.717 363.492 155.413 374.354 164.119 385.049C180.19 404.768 198.772 417.969 219.867 424.654C241.294 431.004 267.578 434.179 298.717 434.179C325.837 434.179 350.614 431.004 373.047 424.654C395.479 417.969 415.569 411.452 433.315 405.102C451.395 398.417 467.634 395.076 482.032 395.076C495.09 395.076 505.302 397.582 512.667 402.595C520.369 407.274 524.219 416.632 524.219 430.669C524.219 443.37 518.36 455.568 506.641 467.266C495.257 478.964 479.352 489.157 458.929 497.847C438.505 506.871 414.564 513.89 387.109 518.903C359.654 524.25 329.855 526.924 297.712 526.924ZM258.036 248.187C285.157 248.187 310.436 245.68 333.873 240.667C357.31 235.32 376.228 226.463 390.625 214.097C405.357 201.396 412.724 184.017 412.724 161.959C412.724 135.89 403.181 116.338 384.096 103.304C365.012 89.9356 338.225 83.2509 303.739 83.2509C283.315 83.2509 263.393 86.9275 243.974 94.2799C224.554 101.299 207.31 111.157 192.244 123.858C177.177 136.558 165.123 150.93 156.083 166.972C147.042 183.015 142.522 200.227 142.522 218.609C142.522 227.967 146.206 234.819 153.572 239.163C161.273 243.174 173.493 245.68 190.234 246.683C207.31 247.686 229.911 248.187 258.036 248.187Z" fill="black"/>
</mask>
<g mask="url(#mask6_5_254)">
<path d="M56.1385 422.648L47.625 427.969L47.6478 428.006L56.1385 422.648ZM45.0894 166.471L35.9178 162.382L35.8993 162.424L45.0894 166.471ZM201.284 28.6063L204.379 38.1455L204.459 38.1184L201.284 28.6063ZM390.625 19.5824L388.316 29.3402L388.347 29.3473L390.625 19.5824ZM455.413 46.1527L449.981 54.587L450.068 54.6431L450.156 54.6973L455.413 46.1527ZM499.107 223.121L507.414 228.759L507.465 228.682L499.107 223.121ZM452.399 262.726L456.707 271.784L456.83 271.723L452.399 262.726ZM385.101 283.781L386.838 293.657L386.944 293.637L385.101 283.781ZM307.254 293.807L306.389 283.818L305.975 283.855L305.564 283.925L307.254 293.807ZM258.538 299.824L259.253 309.825L259.343 309.818L259.431 309.81L258.538 299.824ZM203.795 303.333L204.181 313.352L204.272 313.348L204.362 313.343L203.795 303.333ZM144.029 352.463L134.741 356.281L134.782 356.378L144.029 352.463ZM219.867 424.654L216.827 434.21L216.917 434.239L217.007 434.265L219.867 424.654ZM373.047 424.654L375.788 434.301L375.92 434.261L373.047 424.654ZM433.315 405.102L436.705 414.541L436.804 414.504L433.315 405.102ZM512.667 402.595L507.009 410.88L507.224 411.025L507.445 411.16L512.667 402.595ZM506.641 467.266L499.538 460.176L499.487 460.228L499.436 460.28L506.641 467.266ZM458.929 497.847L454.99 488.623L454.864 488.679L458.929 497.847ZM387.109 518.903L385.302 509.04L385.186 509.062L387.109 518.903ZM333.873 240.667L335.977 250.472L336.111 250.442L333.873 240.667ZM390.625 214.097L397.177 221.697L397.19 221.685L390.625 214.097ZM384.096 103.304L378.325 111.512L378.424 111.579L384.096 103.304ZM243.974 94.2799L247.392 103.708L247.465 103.682L247.536 103.655L243.974 94.2799ZM153.572 239.163L148.462 247.795L148.69 247.93L148.925 248.053L153.572 239.163ZM190.234 246.683L189.633 256.692L189.645 256.692L190.234 246.683ZM297.712 516.898C242.449 516.898 195.099 508.521 155.409 492.095L147.716 510.618C190.392 528.282 240.475 536.95 297.712 536.95V516.898ZM155.409 492.095C116.016 475.79 85.8844 450.859 64.6293 417.291L47.6478 428.006C71.2584 465.292 104.744 492.833 147.716 510.618L155.409 492.095ZM64.6518 417.327C43.4832 383.581 32.5336 340.118 32.5336 286.288H12.4443C12.4443 342.749 23.9278 390.193 47.625 427.969L64.6518 417.327ZM32.5336 286.288C32.5336 241.582 39.8894 203.077 54.2795 170.518L35.8993 162.424C20.1555 198.046 12.4443 239.417 12.4443 286.288H32.5336ZM54.261 170.56C69.1024 137.388 89.338 109.87 114.931 87.8352L101.811 72.6511C73.8323 96.7374 51.8799 126.706 35.9178 162.382L54.261 170.56ZM114.931 87.8352C140.658 65.6863 170.437 49.1156 204.379 38.1455L198.189 19.0671C161.817 30.8241 129.655 48.6773 101.811 72.6511L114.931 87.8352ZM204.459 38.1184C238.518 26.7865 274.938 21.0864 313.784 21.0864V1.03337C272.941 1.03337 234.362 7.03123 198.107 19.0941L204.459 38.1184ZM313.784 21.0864C340.2 21.0864 365.034 23.8527 388.316 29.3402L392.934 9.82462C368.002 3.94808 341.608 1.03337 313.784 1.03337V21.0864ZM388.347 29.3473C411.808 34.8017 432.312 43.248 449.981 54.587L460.845 37.7184C441.014 24.9937 418.325 15.7262 392.903 9.81762L388.347 29.3473ZM450.156 54.6973C467.902 65.5741 481.594 79.4379 491.43 96.3146L508.794 86.2297C497.202 66.3421 481.093 50.1272 460.669 37.6081L450.156 54.6973ZM491.43 96.3146C501.092 112.892 506.139 132.971 506.139 156.945H526.228C526.228 130.119 520.559 106.416 508.794 86.2297L491.43 96.3146ZM506.139 156.945C506.139 182.664 500.731 202.614 490.75 217.559L507.465 228.682C520.251 209.537 526.228 185.371 526.228 156.945H506.139ZM490.802 217.483C480.479 232.634 466.302 244.732 447.969 253.726L456.83 271.723C478.007 261.334 494.968 247.03 507.414 228.759L490.802 217.483ZM448.094 253.668C429.24 262.598 407.656 269.379 383.257 273.925L386.944 293.637C412.769 288.825 436.051 281.57 456.707 271.784L448.094 253.668ZM383.363 273.906C358.897 278.196 333.241 281.502 306.389 283.818L308.119 303.797C335.509 301.434 361.75 298.057 386.838 293.657L383.363 273.906ZM305.564 283.925C292.174 286.206 276.214 288.182 257.645 289.837L259.431 309.81C278.362 308.124 294.879 306.088 308.945 303.691L305.564 283.925ZM257.823 289.822C239.119 291.156 220.921 292.323 203.227 293.322L204.362 313.343C222.16 312.337 240.458 311.165 259.253 309.825L257.823 289.822ZM203.409 293.313C186.043 293.98 172.632 294.309 163.114 294.309V314.362C173.015 314.362 186.725 314.022 204.181 313.352L203.409 293.313ZM163.114 294.309C157.7 294.309 152.783 294.665 148.509 295.497C144.334 296.311 140.106 297.703 136.614 300.238L148.431 316.455C148.622 316.315 149.667 315.703 152.356 315.179C154.947 314.675 158.484 314.362 163.114 314.362V294.309ZM136.614 300.238C129.157 305.651 126.953 314.455 126.953 322.884H147.042C147.042 320.188 147.405 318.505 147.771 317.542C148.098 316.679 148.382 316.49 148.431 316.455L136.614 300.238ZM126.953 322.884C126.953 333.014 129.769 344.227 134.741 356.281L153.317 348.645C148.915 337.972 147.042 329.466 147.042 322.884H126.953ZM134.782 356.378C139.889 368.393 147.11 380.054 156.323 391.372L171.914 378.726C163.716 368.655 157.545 358.591 153.277 348.546L134.782 356.378ZM156.323 391.372C173.438 412.371 193.599 426.849 216.827 434.21L222.906 415.097C203.947 409.09 186.942 397.164 171.914 378.726L156.323 391.372ZM217.007 434.265C239.648 440.975 266.959 444.205 298.717 444.205V424.153C268.197 424.153 242.942 421.033 222.725 415.042L217.007 434.265ZM298.717 444.205C326.617 444.205 352.333 440.941 375.788 434.301L370.307 415.007C348.897 421.068 325.058 424.153 298.717 424.153V444.205ZM375.92 434.261C398.487 427.537 418.753 420.965 436.705 414.541L429.925 395.664C412.385 401.94 392.472 408.401 370.174 415.046L375.92 434.261ZM436.804 414.504C454.122 408.101 469.153 405.102 482.032 405.102V385.049C466.116 385.049 448.668 388.734 429.827 395.7L436.804 414.504ZM482.032 405.102C493.962 405.102 501.92 407.416 507.009 410.88L518.326 394.311C508.683 387.748 496.217 385.049 482.032 385.049V405.102ZM507.445 411.16C510.725 413.153 514.174 418.057 514.174 430.669H534.264C534.264 415.207 530.012 401.396 517.891 394.031L507.445 411.16ZM514.174 430.669C514.174 439.976 509.967 449.767 499.538 460.176L513.744 474.356C526.752 461.37 534.264 446.764 534.264 430.669H514.174ZM499.436 460.28C489.251 470.746 474.602 480.279 454.99 488.623L462.867 507.071C484.104 498.036 501.264 487.182 513.846 474.253L499.436 460.28ZM454.864 488.679C435.315 497.316 412.163 504.135 385.302 509.04L388.917 528.766C416.966 523.645 441.694 516.426 462.994 507.016L454.864 488.679ZM385.186 509.062C358.45 514.27 329.302 516.898 297.712 516.898V536.95C330.407 536.95 360.859 534.231 389.033 528.744L385.186 509.062ZM258.036 258.214C285.773 258.214 311.764 255.651 335.977 250.472L331.769 230.863C309.106 235.711 284.539 238.16 258.036 238.16V258.214ZM336.111 250.442C360.728 244.825 381.254 235.373 397.177 221.697L384.074 206.496C371.202 217.553 353.893 225.815 331.635 230.892L336.111 250.442ZM397.19 221.685C414.445 206.811 422.768 186.492 422.768 161.959H402.679C402.679 181.543 396.27 195.983 384.06 206.509L397.19 221.685ZM422.768 161.959C422.768 133.08 411.977 110.197 389.769 95.0291L378.424 111.579C394.385 122.479 402.679 138.7 402.679 161.959H422.768ZM389.866 95.0962C368.457 80.1006 339.352 73.2245 303.739 73.2245V93.2772C337.099 93.2772 361.564 99.7698 378.325 111.512L389.866 95.0962ZM303.739 73.2245C282.077 73.2245 260.949 77.1289 240.411 84.9049L247.536 103.655C265.837 96.7252 284.553 93.2772 303.739 93.2772V73.2245ZM240.554 84.852C220.07 92.2559 201.78 102.696 185.763 116.198L198.724 131.519C212.841 119.619 229.037 110.342 247.392 103.708L240.554 84.852ZM185.763 116.198C169.844 129.617 156.996 144.901 147.328 162.056L164.838 171.888C173.25 156.959 184.509 143.501 198.724 131.519L185.763 116.198ZM147.328 162.056C137.443 179.598 132.478 198.503 132.478 218.609H152.567C152.567 201.951 156.642 186.432 164.838 171.888L147.328 162.056ZM132.478 218.609C132.478 231.103 137.699 241.448 148.462 247.795L158.682 230.531C154.712 228.189 152.567 224.831 152.567 218.609H132.478ZM148.925 248.053C158.572 253.077 172.552 255.669 189.633 256.692L190.836 236.675C174.435 235.692 163.973 233.27 158.218 230.273L148.925 248.053ZM189.645 256.692C207.001 257.711 229.822 258.214 258.036 258.214V238.16C230 238.16 207.62 237.66 190.824 236.673L189.645 256.692Z" fill="black"/>
</g>
<defs>
<linearGradient id="paint0_linear_5_254" x1="218.861" y1="26.0995" x2="549.511" y2="517.952" gradientUnits="userSpaceOnUse">
<stop stop-color="#D314C0"/>
<stop offset="1" stop-color="#D31414"/>
</linearGradient>
<linearGradient id="paint1_linear_5_254" x1="158.594" y1="26.0995" x2="489.243" y2="517.952" gradientUnits="userSpaceOnUse">
<stop stop-color="#C7EAE6"/>
<stop offset="1" stop-color="#53B3ED"/>
</linearGradient>
</defs>
</svg>
